<?xml version="1.0" encoding="utf-8"?>
<!-- Generator: Adobe Illustrator 23.0.3, SVG Export Plug-In . SVG Version: 6.00 Build 0)  -->
<svg version="1.1" id="Layer_1" xmlns="http://www.w3.org/2000/svg" xmlns:xlink="http://www.w3.org/1999/xlink" x="0px" y="0px"
	 viewBox="0 0 595.3 841.9" style="enable-background:new 0 0 595.3 841.9;" xml:space="preserve">
<g id="Menu_4_buttons_2_">
	<g>
		<defs>
			<rect id="SVGID_1_" x="199.7" y="67" width="196.3" height="15.6"/>
		</defs>
		<clipPath id="SVGID_2_">
			<use xlink:href="#SVGID_1_"  style="overflow:visible;"/>
		</clipPath>
		<rect x="199.7" y="67" style="clip-path:url(#SVGID_2_);fill:#989999;" width="44.8" height="15.6"/>
		<rect x="199.7" y="67" style="clip-path:url(#SVGID_2_);fill:#4B4B4B;" width="44.8" height="15.6"/>
		<g style="clip-path:url(#SVGID_2_);">
			<text transform="matrix(1 0 0 1 209.7241 76.8594)"><tspan x="0" y="0" style="fill:#F2F2F2; font-family:'Helvetica'; font-size:7px;">BU</tspan><tspan x="8.3" y="0" style="fill:#F2F2F2; font-family:'Helvetica'; font-size:7px;">T</tspan><tspan x="12.1" y="0" style="fill:#F2F2F2; font-family:'Helvetica'; font-size:7px;">T</tspan><tspan x="15.4" y="0" style="fill:#F2F2F2; font-family:'Helvetica'; font-size:7px;">ON</tspan></text>
		</g>
		<rect x="250.2" y="67" style="clip-path:url(#SVGID_2_);fill:#989999;" width="44.8" height="15.6"/>
		<rect x="250.2" y="67" style="clip-path:url(#SVGID_2_);fill:#4B4B4B;" width="44.8" height="15.6"/>
		<g style="clip-path:url(#SVGID_2_);">
			<text transform="matrix(1 0 0 1 260.2241 76.8594)"><tspan x="0" y="0" style="fill:#F2F2F2; font-family:'Helvetica'; font-size:7px;">BU</tspan><tspan x="8.3" y="0" style="fill:#F2F2F2; font-family:'Helvetica'; font-size:7px;">T</tspan><tspan x="12.1" y="0" style="fill:#F2F2F2; font-family:'Helvetica'; font-size:7px;">T</tspan><tspan x="15.4" y="0" style="fill:#F2F2F2; font-family:'Helvetica'; font-size:7px;">ON</tspan></text>
		</g>
		<rect x="300.7" y="67" style="clip-path:url(#SVGID_2_);fill:#989999;" width="44.8" height="15.6"/>
		<rect x="300.7" y="67" style="clip-path:url(#SVGID_2_);fill:#4B4B4B;" width="44.8" height="15.6"/>
		<g style="clip-path:url(#SVGID_2_);">
			<text transform="matrix(1 0 0 1 310.7246 76.8594)"><tspan x="0" y="0" style="fill:#F2F2F2; font-family:'Helvetica'; font-size:7px;">BU</tspan><tspan x="8.3" y="0" style="fill:#F2F2F2; font-family:'Helvetica'; font-size:7px;">T</tspan><tspan x="12.1" y="0" style="fill:#F2F2F2; font-family:'Helvetica'; font-size:7px;">T</tspan><tspan x="15.4" y="0" style="fill:#F2F2F2; font-family:'Helvetica'; font-size:7px;">ON</tspan></text>
		</g>
		<rect x="351.2" y="67" style="clip-path:url(#SVGID_2_);fill:#989999;" width="44.8" height="15.6"/>
		<rect x="351.2" y="67" style="clip-path:url(#SVGID_2_);fill:#4B4B4B;" width="44.8" height="15.6"/>
		<g style="clip-path:url(#SVGID_2_);">
			<text transform="matrix(1 0 0 1 361.2246 76.8594)"><tspan x="0" y="0" style="fill:#F2F2F2; font-family:'Helvetica'; font-size:7px;">BU</tspan><tspan x="8.3" y="0" style="fill:#F2F2F2; font-family:'Helvetica'; font-size:7px;">T</tspan><tspan x="12.1" y="0" style="fill:#F2F2F2; font-family:'Helvetica'; font-size:7px;">T</tspan><tspan x="15.4" y="0" style="fill:#F2F2F2; font-family:'Helvetica'; font-size:7px;">ON</tspan></text>
		</g>
	</g>
</g>
<g id="Thumbnails__x28_50x50px_x29__2_">
	<g>
		<defs>
			<rect id="SVGID_3_" x="21.7" y="12" width="50.7" height="50.7"/>
		</defs>
		<clipPath id="SVGID_4_">
			<use xlink:href="#SVGID_3_"  style="overflow:visible;"/>
		</clipPath>
		<rect x="22.6" y="12.9" style="clip-path:url(#SVGID_4_);fill:#CCCCCC;" width="49" height="49"/>
		<path style="clip-path:url(#SVGID_4_);fill:#989999;" d="M23.1,13.4h48v48h-48V13.4z M22.1,62.4h50v-50h-50V62.4z"/>
		<g style="clip-path:url(#SVGID_4_);">
			<defs>
				<rect id="SVGID_5_" x="21.7" y="12" width="50.7" height="50.7"/>
			</defs>
			<clipPath id="SVGID_6_">
				<use xlink:href="#SVGID_5_"  style="overflow:visible;"/>
			</clipPath>
			
				<line style="clip-path:url(#SVGID_6_);fill:none;stroke:#989999;stroke-miterlimit:10;" x1="22.1" y1="12.4" x2="72.1" y2="62.4"/>
			
				<line style="clip-path:url(#SVGID_6_);fill:none;stroke:#989999;stroke-miterlimit:10;" x1="22.1" y1="62.4" x2="72.1" y2="12.4"/>
		</g>
	</g>
</g>
<g id="Avatar__x28_150px_x29__2_">
	<g>
		<defs>
			<rect id="SVGID_7_" x="541.7" y="21" width="33" height="33"/>
		</defs>
		<clipPath id="SVGID_8_">
			<use xlink:href="#SVGID_7_"  style="overflow:visible;"/>
		</clipPath>
		<rect x="541.8" y="21.1" style="clip-path:url(#SVGID_8_);fill:#CCCCCC;" width="32.8" height="32.8"/>
		<path style="clip-path:url(#SVGID_8_);fill:#989999;" d="M541.9,21.2h32.6v32.6h-32.6V21.2z M541.7,54h33V21h-33V54z"/>
		<g style="clip-path:url(#SVGID_8_);">
			<defs>
				<rect id="SVGID_9_" x="541.7" y="21" width="33" height="33"/>
			</defs>
			<clipPath id="SVGID_10_">
				<use xlink:href="#SVGID_9_"  style="overflow:visible;"/>
			</clipPath>
			<path style="clip-path:url(#SVGID_10_);fill:#989999;" d="M569,53.8c0,0.1,0,0.1,0,0.2h-21.6c0-0.1,0-0.1,0-0.2
				c0-7,3.6-12.9,8.4-14.4c-1.6-0.9-2.7-2.7-2.7-4.7c0-3,2.4-5.4,5.4-5.4c3,0,5.4,2.4,5.4,5.4c0,2.1-1.2,3.9-2.9,4.8
				C565.6,41.3,569,47,569,53.8"/>
		</g>
	</g>
</g>
<text transform="matrix(1 0 0 1 221.4673 38.001)" style="font-family:'MyriadPro-Regular'; font-size:36px;">Heading 1</text>
<g id="Button_soft_edge_2_">
	<g>
		<defs>
			<rect id="SVGID_11_" x="262.7" y="812" width="71" height="23"/>
		</defs>
		<clipPath id="SVGID_12_">
			<use xlink:href="#SVGID_11_"  style="overflow:visible;"/>
		</clipPath>
		<g style="clip-path:url(#SVGID_12_);">
			<defs>
				<rect id="SVGID_13_" x="262.7" y="812" width="71" height="23"/>
			</defs>
			<clipPath id="SVGID_14_">
				<use xlink:href="#SVGID_13_"  style="overflow:visible;"/>
			</clipPath>
			<path style="clip-path:url(#SVGID_14_);fill:#989999;" d="M262.7,832c0,1.6,1.3,3,3,3h65.1c1.6,0,3-1.3,3-3V815c0-1.6-1.3-3-3-3
				h-65.1c-1.6,0-3,1.3-3,3V832z"/>
			<path style="clip-path:url(#SVGID_14_);fill:#4B4B4B;" d="M262.7,832c0,1.6,1.3,3,3,3h65.1c1.6,0,3-1.3,3-3V815c0-1.6-1.3-3-3-3
				h-65.1c-1.6,0-3,1.3-3,3V832z"/>
		</g>
		<g style="clip-path:url(#SVGID_12_);">
			<text transform="matrix(1.1404 0 0 1 277.5059 826.501)"><tspan x="0" y="0" style="fill:#F2F2F2; font-family:'Helvetica'; font-size:10.2612px;">BU</tspan><tspan x="12.2" y="0" style="fill:#F2F2F2; font-family:'Helvetica'; font-size:10.2612px;">T</tspan><tspan x="17.7" y="0" style="fill:#F2F2F2; font-family:'Helvetica'; font-size:10.2612px;">T</tspan><tspan x="22.5" y="0" style="fill:#F2F2F2; font-family:'Helvetica'; font-size:10.2612px;">ON</tspan></text>
		</g>
	</g>
</g>
<line style="fill:none;stroke:#7C746F;stroke-miterlimit:10;" x1="0.7" y1="99" x2="596.7" y2="99"/>
<g id="Thumbnails__x28_100x100px_x29__2_">
	<g>
		<defs>
			<rect id="SVGID_15_" x="12.7" y="111" width="271" height="221"/>
		</defs>
		<clipPath id="SVGID_16_">
			<use xlink:href="#SVGID_15_"  style="overflow:visible;"/>
		</clipPath>
		<rect x="15" y="112.9" style="clip-path:url(#SVGID_16_);fill:#CCCCCC;" width="266.4" height="217.3"/>
		<path style="clip-path:url(#SVGID_16_);fill:#989999;" d="M16.4,114h263.7V329H16.4V114z M13.7,331.2h269.1V111.8H13.7V331.2z"/>
		<g style="clip-path:url(#SVGID_16_);">
			<defs>
				<rect id="SVGID_17_" x="12.7" y="111" width="271" height="221"/>
			</defs>
			<clipPath id="SVGID_18_">
				<use xlink:href="#SVGID_17_"  style="overflow:visible;"/>
			</clipPath>
			
				<line style="clip-path:url(#SVGID_18_);fill:none;stroke:#989999;stroke-width:2.4301;stroke-miterlimit:10;" x1="13.7" y1="111.8" x2="282.8" y2="331.2"/>
			
				<line style="clip-path:url(#SVGID_18_);fill:none;stroke:#989999;stroke-width:2.4301;stroke-miterlimit:10;" x1="13.7" y1="331.2" x2="282.8" y2="111.8"/>
		</g>
	</g>
</g>
<g id="Lorum_Ipsum__x28_1_paragraph_x29__1_">
	<g>
		<defs>
			<rect id="SVGID_19_" x="21.7" y="339" width="253.5" height="57"/>
		</defs>
		<clipPath id="SVGID_20_">
			<use xlink:href="#SVGID_19_"  style="overflow:visible;"/>
		</clipPath>
		<g style="clip-path:url(#SVGID_20_);">
			<defs>
				<rect id="SVGID_21_" x="21.7" y="339" width="253.5" height="57"/>
			</defs>
			<clipPath id="SVGID_22_">
				<use xlink:href="#SVGID_21_"  style="overflow:visible;"/>
			</clipPath>
			<g style="clip-path:url(#SVGID_22_);">
				<text transform="matrix(1.1228 0 0 1 21.7241 346.3379)"><tspan x="0" y="0" style="fill:#020000; font-family:'Helvetica'; font-size:8.7664px;">Nulla vitae elit libe</tspan><tspan x="67.2" y="0" style="fill:#020000; font-family:'Helvetica'; font-size:8.7664px;">r</tspan><tspan x="70" y="0" style="fill:#020000; font-family:'Helvetica'; font-size:8.7664px;">o</tspan><tspan x="74.6" y="0" style="fill:#020000; font-family:'Helvetica'; font-size:8.7664px;">, a pha</tspan><tspan x="98.5" y="0" style="fill:#020000; font-family:'Helvetica'; font-size:8.7664px;">r</tspan><tspan x="101.2" y="0" style="fill:#020000; font-family:'Helvetica'; font-size:8.7664px;">et</tspan><tspan x="108.5" y="0" style="fill:#020000; font-family:'Helvetica'; font-size:8.7664px;">r</tspan><tspan x="111.4" y="0" style="fill:#020000; font-family:'Helvetica'; font-size:8.7664px;">a augu</tspan><tspan x="136.2" y="0" style="fill:#020000; font-family:'Helvetica'; font-size:8.7664px;">e</tspan><tspan x="140.5" y="0" style="fill:#020000; font-family:'Helvetica'; font-size:8.7664px;">.</tspan><tspan x="142.3" y="0" style="fill:#020000; font-family:'Helvetica'; font-size:8.7664px;"> </tspan><tspan x="143.9" y="0" style="fill:#020000; font-family:'Helvetica'; font-size:8.7664px;">V</tspan><tspan x="148.5" y="0" style="fill:#020000; font-family:'Helvetica'; font-size:8.7664px;">estibulum id ligula </tspan></text>
			</g>
			<g style="clip-path:url(#SVGID_22_);">
				<text transform="matrix(1.1228 0 0 1 21.7241 356.8579)"><tspan x="0" y="0" style="fill:#020000; font-family:'Helvetica'; font-size:8.7664px;">po</tspan><tspan x="9.8" y="0" style="fill:#020000; font-family:'Helvetica'; font-size:8.7664px;">r</tspan><tspan x="12.9" y="0" style="fill:#020000; font-family:'Helvetica'; font-size:8.7664px;">ta </tspan><tspan x="21.9" y="0" style="fill:#020000; font-family:'Helvetica'; font-size:8.7664px;">f</tspan><tspan x="24.3" y="0" style="fill:#020000; font-family:'Helvetica'; font-size:8.7664px;">elis euismod sempe</tspan><tspan x="96.4" y="0" style="fill:#020000; font-family:'Helvetica'; font-size:8.7664px;">r</tspan><tspan x="98.8" y="0" style="fill:#020000; font-family:'Helvetica'; font-size:8.7664px;">. </tspan><tspan x="102.4" y="0" style="fill:#020000; font-family:'Helvetica'; font-size:8.7664px;">D</tspan><tspan x="108.3" y="0" style="fill:#020000; font-family:'Helvetica'; font-size:8.7664px;">uis molli</tspan><tspan x="138.8" y="0" style="fill:#020000; font-family:'Helvetica'; font-size:8.7664px;">s</tspan><tspan x="142.2" y="0" style="fill:#020000; font-family:'Helvetica'; font-size:8.7664px;">, est non </tspan><tspan x="174.9" y="0" style="fill:#020000; font-family:'Helvetica'; font-size:8.7664px;">c</tspan><tspan x="178.8" y="0" style="fill:#020000; font-family:'Helvetica'; font-size:8.7664px;">ommodo </tspan></text>
			</g>
			<g style="clip-path:url(#SVGID_22_);">
				<text transform="matrix(1.1228 0 0 1 21.7241 367.3774)"><tspan x="0" y="0" style="fill:#020000; font-family:'Helvetica'; font-size:8.7664px;">lu</tspan><tspan x="6.9" y="0" style="fill:#020000; font-family:'Helvetica'; font-size:8.7664px;">c</tspan><tspan x="10.9" y="0" style="fill:#020000; font-family:'Helvetica'; font-size:8.7664px;">tu</tspan><tspan x="18.7" y="0" style="fill:#020000; font-family:'Helvetica'; font-size:8.7664px;">s</tspan><tspan x="22.1" y="0" style="fill:#020000; font-family:'Helvetica'; font-size:8.7664px;">, nisi e</tspan><tspan x="44.4" y="0" style="fill:#020000; font-family:'Helvetica'; font-size:8.7664px;">r</tspan><tspan x="47.2" y="0" style="fill:#020000; font-family:'Helvetica'; font-size:8.7664px;">a</tspan><tspan x="51.4" y="0" style="fill:#020000; font-family:'Helvetica'; font-size:8.7664px;">t po</tspan><tspan x="66" y="0" style="fill:#020000; font-family:'Helvetica'; font-size:8.7664px;">r</tspan><tspan x="69.1" y="0" style="fill:#020000; font-family:'Helvetica'; font-size:8.7664px;">tti</tspan><tspan x="76.9" y="0" style="fill:#020000; font-family:'Helvetica'; font-size:8.7664px;">t</tspan><tspan x="79.8" y="0" style="fill:#020000; font-family:'Helvetica'; font-size:8.7664px;">or ligula, eget lacinia odio sem nec eli</tspan><tspan x="215.9" y="0" style="fill:#020000; font-family:'Helvetica'; font-size:8.7664px;">t</tspan><tspan x="218.8" y="0" style="fill:#020000; font-family:'Helvetica'; font-size:8.7664px;">. </tspan></text>
			</g>
			<g style="clip-path:url(#SVGID_22_);">
				<text transform="matrix(1.1228 0 0 1 21.7241 377.8975)"><tspan x="0" y="0" style="fill:#020000; font-family:'Helvetica'; font-size:8.7664px;">D</tspan><tspan x="5.9" y="0" style="fill:#020000; font-family:'Helvetica'; font-size:8.7664px;">uis molli</tspan><tspan x="36.4" y="0" style="fill:#020000; font-family:'Helvetica'; font-size:8.7664px;">s</tspan><tspan x="39.8" y="0" style="fill:#020000; font-family:'Helvetica'; font-size:8.7664px;">, est non </tspan><tspan x="72.5" y="0" style="fill:#020000; font-family:'Helvetica'; font-size:8.7664px;">c</tspan><tspan x="76.3" y="0" style="fill:#020000; font-family:'Helvetica'; font-size:8.7664px;">ommodo lu</tspan><tspan x="119.1" y="0" style="fill:#020000; font-family:'Helvetica'; font-size:8.7664px;">c</tspan><tspan x="123.1" y="0" style="fill:#020000; font-family:'Helvetica'; font-size:8.7664px;">tu</tspan><tspan x="130.9" y="0" style="fill:#020000; font-family:'Helvetica'; font-size:8.7664px;">s</tspan><tspan x="134.3" y="0" style="fill:#020000; font-family:'Helvetica'; font-size:8.7664px;">, nisi e</tspan><tspan x="156.6" y="0" style="fill:#020000; font-family:'Helvetica'; font-size:8.7664px;">r</tspan><tspan x="159.5" y="0" style="fill:#020000; font-family:'Helvetica'; font-size:8.7664px;">a</tspan><tspan x="163.6" y="0" style="fill:#020000; font-family:'Helvetica'; font-size:8.7664px;">t po</tspan><tspan x="178.2" y="0" style="fill:#020000; font-family:'Helvetica'; font-size:8.7664px;">r</tspan><tspan x="181.3" y="0" style="fill:#020000; font-family:'Helvetica'; font-size:8.7664px;">tti</tspan><tspan x="189.1" y="0" style="fill:#020000; font-family:'Helvetica'; font-size:8.7664px;">t</tspan><tspan x="192" y="0" style="fill:#020000; font-family:'Helvetica'; font-size:8.7664px;">or ligula, </tspan></text>
			</g>
			<g style="clip-path:url(#SVGID_22_);">
				<text transform="matrix(1.1228 0 0 1 21.7241 388.417)"><tspan x="0" y="0" style="fill:#020000; font-family:'Helvetica'; font-size:8.7664px;">eget lacinia odio sem nec eli</tspan><tspan x="102.8" y="0" style="fill:#020000; font-family:'Helvetica'; font-size:8.7664px;">t</tspan><tspan x="105.7" y="0" style="fill:#020000; font-family:'Helvetica'; font-size:8.7664px;">.</tspan></text>
			</g>
		</g>
	</g>
</g>
<g id="Thumbnails__x28_50x50px_x29__3_">
	<g>
		<defs>
			<rect id="SVGID_23_" x="297.7" y="111" width="136" height="136"/>
		</defs>
		<clipPath id="SVGID_24_">
			<use xlink:href="#SVGID_23_"  style="overflow:visible;"/>
		</clipPath>
		<rect x="300" y="113.3" style="clip-path:url(#SVGID_24_);fill:#CCCCCC;" width="131.4" height="131.4"/>
		<path style="clip-path:url(#SVGID_24_);fill:#989999;" d="M301.4,114.6h128.7v128.7H301.4V114.6z M298.7,246.1h134.1V111.9H298.7
			V246.1z"/>
		<g style="clip-path:url(#SVGID_24_);">
			<defs>
				<rect id="SVGID_25_" x="297.7" y="111" width="136" height="136"/>
			</defs>
			<clipPath id="SVGID_26_">
				<use xlink:href="#SVGID_25_"  style="overflow:visible;"/>
			</clipPath>
			
				<line style="clip-path:url(#SVGID_26_);fill:none;stroke:#989999;stroke-width:2.6821;stroke-miterlimit:10;" x1="298.7" y1="111.9" x2="432.8" y2="246.1"/>
			
				<line style="clip-path:url(#SVGID_26_);fill:none;stroke:#989999;stroke-width:2.6821;stroke-miterlimit:10;" x1="298.7" y1="246.1" x2="432.8" y2="111.9"/>
		</g>
	</g>
</g>
<g id="Thumbnails__x28_50x50px_x29__4_">
	<g>
		<defs>
			<rect id="SVGID_27_" x="445.7" y="111" width="137" height="137"/>
		</defs>
		<clipPath id="SVGID_28_">
			<use xlink:href="#SVGID_27_"  style="overflow:visible;"/>
		</clipPath>
		<rect x="448" y="113.3" style="clip-path:url(#SVGID_28_);fill:#CCCCCC;" width="132.4" height="132.4"/>
		<path style="clip-path:url(#SVGID_28_);fill:#989999;" d="M449.4,114.7h129.7v129.7H449.4V114.7z M446.7,247h135.1V112H446.7V247z
			"/>
		<g style="clip-path:url(#SVGID_28_);">
			<defs>
				<rect id="SVGID_29_" x="445.7" y="111" width="137" height="137"/>
			</defs>
			<clipPath id="SVGID_30_">
				<use xlink:href="#SVGID_29_"  style="overflow:visible;"/>
			</clipPath>
			
				<line style="clip-path:url(#SVGID_30_);fill:none;stroke:#989999;stroke-width:2.7018;stroke-miterlimit:10;" x1="446.7" y1="112" x2="581.8" y2="247"/>
			
				<line style="clip-path:url(#SVGID_30_);fill:none;stroke:#989999;stroke-width:2.7018;stroke-miterlimit:10;" x1="446.7" y1="247" x2="581.8" y2="112"/>
		</g>
	</g>
</g>
<g id="Img__x28_300x150px_x29__3_">
	<g>
		<defs>
			<rect id="SVGID_31_" x="297.7" y="260" width="285" height="143.1"/>
		</defs>
		<clipPath id="SVGID_32_">
			<use xlink:href="#SVGID_31_"  style="overflow:visible;"/>
		</clipPath>
		<rect x="298.4" y="260.9" style="clip-path:url(#SVGID_32_);fill:#CCCCCC;" width="283.6" height="141.3"/>
		<path style="clip-path:url(#SVGID_32_);fill:#989999;" d="M298.9,261.4h282.7v140.4H298.9V261.4z M297.9,402.7h284.6V260.4H297.9
			V402.7z"/>
		<g style="clip-path:url(#SVGID_32_);">
			<defs>
				<rect id="SVGID_33_" x="297.7" y="260" width="285" height="143.1"/>
			</defs>
			<clipPath id="SVGID_34_">
				<use xlink:href="#SVGID_33_"  style="overflow:visible;"/>
			</clipPath>
			
				<line style="clip-path:url(#SVGID_34_);fill:none;stroke:#989999;stroke-width:0.9486;stroke-miterlimit:10;" x1="297.9" y1="260.4" x2="582.5" y2="402.7"/>
			
				<line style="clip-path:url(#SVGID_34_);fill:none;stroke:#989999;stroke-width:0.9486;stroke-miterlimit:10;" x1="297.9" y1="402.7" x2="582.5" y2="260.4"/>
		</g>
	</g>
</g>
<g id="Thumbnails__x28_50x50px_x29__5_">
	<g>
		<defs>
			<rect id="SVGID_35_" x="12.7" y="419.4" width="134" height="134"/>
		</defs>
		<clipPath id="SVGID_36_">
			<use xlink:href="#SVGID_35_"  style="overflow:visible;"/>
		</clipPath>
		<rect x="15" y="421.6" style="clip-path:url(#SVGID_36_);fill:#CCCCCC;" width="129.5" height="129.5"/>
		<path style="clip-path:url(#SVGID_36_);fill:#989999;" d="M16.3,423h126.9v126.9H16.3V423z M13.7,552.4h132.1V420.3H13.7V552.4z"
			/>
		<g style="clip-path:url(#SVGID_36_);">
			<defs>
				<rect id="SVGID_37_" x="12.7" y="419.4" width="134" height="134"/>
			</defs>
			<clipPath id="SVGID_38_">
				<use xlink:href="#SVGID_37_"  style="overflow:visible;"/>
			</clipPath>
			
				<line style="clip-path:url(#SVGID_38_);fill:none;stroke:#989999;stroke-width:2.6428;stroke-miterlimit:10;" x1="13.7" y1="420.3" x2="145.8" y2="552.4"/>
			
				<line style="clip-path:url(#SVGID_38_);fill:none;stroke:#989999;stroke-width:2.6428;stroke-miterlimit:10;" x1="13.7" y1="552.4" x2="145.8" y2="420.3"/>
		</g>
	</g>
</g>
<g id="Thumbnails__x28_50x50px_x29__6_">
	<g>
		<defs>
			<rect id="SVGID_39_" x="156.7" y="419.4" width="134" height="134"/>
		</defs>
		<clipPath id="SVGID_40_">
			<use xlink:href="#SVGID_39_"  style="overflow:visible;"/>
		</clipPath>
		<rect x="159" y="421.6" style="clip-path:url(#SVGID_40_);fill:#CCCCCC;" width="129.5" height="129.5"/>
		<path style="clip-path:url(#SVGID_40_);fill:#989999;" d="M160.3,423h126.9v126.9H160.3V423z M157.7,552.4h132.1V420.3H157.7
			V552.4z"/>
		<g style="clip-path:url(#SVGID_40_);">
			<defs>
				<rect id="SVGID_41_" x="156.7" y="419.4" width="134" height="134"/>
			</defs>
			<clipPath id="SVGID_42_">
				<use xlink:href="#SVGID_41_"  style="overflow:visible;"/>
			</clipPath>
			
				<line style="clip-path:url(#SVGID_42_);fill:none;stroke:#989999;stroke-width:2.6428;stroke-miterlimit:10;" x1="157.7" y1="420.3" x2="289.8" y2="552.4"/>
			
				<line style="clip-path:url(#SVGID_42_);fill:none;stroke:#989999;stroke-width:2.6428;stroke-miterlimit:10;" x1="157.7" y1="552.4" x2="289.8" y2="420.3"/>
		</g>
	</g>
</g>
<g id="Thumbnails__x28_50x50px_x29__7_">
	<g>
		<defs>
			<rect id="SVGID_43_" x="300.7" y="419.4" width="134" height="134"/>
		</defs>
		<clipPath id="SVGID_44_">
			<use xlink:href="#SVGID_43_"  style="overflow:visible;"/>
		</clipPath>
		<rect x="303" y="421.6" style="clip-path:url(#SVGID_44_);fill:#CCCCCC;" width="129.5" height="129.5"/>
		<path style="clip-path:url(#SVGID_44_);fill:#989999;" d="M304.3,423h126.9v126.9H304.3V423z M301.7,552.4h132.1V420.3H301.7
			V552.4z"/>
		<g style="clip-path:url(#SVGID_44_);">
			<defs>
				<rect id="SVGID_45_" x="300.7" y="419.4" width="134" height="134"/>
			</defs>
			<clipPath id="SVGID_46_">
				<use xlink:href="#SVGID_45_"  style="overflow:visible;"/>
			</clipPath>
			
				<line style="clip-path:url(#SVGID_46_);fill:none;stroke:#989999;stroke-width:2.6428;stroke-miterlimit:10;" x1="301.7" y1="420.3" x2="433.8" y2="552.4"/>
			
				<line style="clip-path:url(#SVGID_46_);fill:none;stroke:#989999;stroke-width:2.6428;stroke-miterlimit:10;" x1="301.7" y1="552.4" x2="433.8" y2="420.3"/>
		</g>
	</g>
</g>
<g id="Thumbnails__x28_50x50px_x29__8_">
	<g>
		<defs>
			<rect id="SVGID_47_" x="446.7" y="419.4" width="134" height="134"/>
		</defs>
		<clipPath id="SVGID_48_">
			<use xlink:href="#SVGID_47_"  style="overflow:visible;"/>
		</clipPath>
		<rect x="449" y="421.6" style="clip-path:url(#SVGID_48_);fill:#CCCCCC;" width="129.5" height="129.5"/>
		<path style="clip-path:url(#SVGID_48_);fill:#989999;" d="M450.3,423h126.9v126.9H450.3V423z M447.7,552.4h132.1V420.3H447.7
			V552.4z"/>
		<g style="clip-path:url(#SVGID_48_);">
			<defs>
				<rect id="SVGID_49_" x="446.7" y="419.4" width="134" height="134"/>
			</defs>
			<clipPath id="SVGID_50_">
				<use xlink:href="#SVGID_49_"  style="overflow:visible;"/>
			</clipPath>
			
				<line style="clip-path:url(#SVGID_50_);fill:none;stroke:#989999;stroke-width:2.6428;stroke-miterlimit:10;" x1="447.7" y1="420.3" x2="579.8" y2="552.4"/>
			
				<line style="clip-path:url(#SVGID_50_);fill:none;stroke:#989999;stroke-width:2.6428;stroke-miterlimit:10;" x1="447.7" y1="552.4" x2="579.8" y2="420.3"/>
		</g>
	</g>
</g>
<g id="Lorum_Ipsum__x28_1_sentence_x29__11_">
	<g>
		<defs>
			<rect id="SVGID_51_" x="21.7" y="564.3" width="115" height="5.3"/>
		</defs>
		<clipPath id="SVGID_52_">
			<use xlink:href="#SVGID_51_"  style="overflow:visible;"/>
		</clipPath>
		<g style="clip-path:url(#SVGID_52_);">
			<defs>
				<rect id="SVGID_53_" x="21.7" y="564.2" width="115" height="5.3"/>
			</defs>
			<clipPath id="SVGID_54_">
				<use xlink:href="#SVGID_53_"  style="overflow:visible;"/>
			</clipPath>
			<g style="clip-path:url(#SVGID_54_);">
				<text transform="matrix(1 0 0 1 21.7241 568.3008)"><tspan x="0" y="0" style="fill:#020000; font-family:'Helvetica'; font-size:4.8389px;">C</tspan><tspan x="2.8" y="0" style="fill:#020000; font-family:'Helvetica'; font-size:4.8389px;">r</tspan><tspan x="4.4" y="0" style="fill:#020000; font-family:'Helvetica'; font-size:4.8389px;">as jus</tspan><tspan x="15.4" y="0" style="fill:#020000; font-family:'Helvetica'; font-size:4.8389px;">t</tspan><tspan x="17" y="0" style="fill:#020000; font-family:'Helvetica'; font-size:4.8389px;">o odi</tspan><tspan x="27.2" y="0" style="fill:#020000; font-family:'Helvetica'; font-size:4.8389px;">o</tspan><tspan x="29.7" y="0" style="fill:#020000; font-family:'Helvetica'; font-size:4.8389px;">, dapibus ac facilisis in, egestas eget quam.</tspan></text>
			</g>
		</g>
	</g>
</g>
<g id="Lorum_Ipsum__x28_1_sentence_x29__12_">
	<g>
		<defs>
			<rect id="SVGID_55_" x="166.1" y="564.3" width="115" height="5.3"/>
		</defs>
		<clipPath id="SVGID_56_">
			<use xlink:href="#SVGID_55_"  style="overflow:visible;"/>
		</clipPath>
		<g style="clip-path:url(#SVGID_56_);">
			<defs>
				<rect id="SVGID_57_" x="166.1" y="564.2" width="115" height="5.3"/>
			</defs>
			<clipPath id="SVGID_58_">
				<use xlink:href="#SVGID_57_"  style="overflow:visible;"/>
			</clipPath>
			<g style="clip-path:url(#SVGID_58_);">
				<text transform="matrix(1 0 0 1 166.0571 568.3008)"><tspan x="0" y="0" style="fill:#020000; font-family:'Helvetica'; font-size:4.8389px;">C</tspan><tspan x="2.8" y="0" style="fill:#020000; font-family:'Helvetica'; font-size:4.8389px;">r</tspan><tspan x="4.4" y="0" style="fill:#020000; font-family:'Helvetica'; font-size:4.8389px;">as jus</tspan><tspan x="15.4" y="0" style="fill:#020000; font-family:'Helvetica'; font-size:4.8389px;">t</tspan><tspan x="17" y="0" style="fill:#020000; font-family:'Helvetica'; font-size:4.8389px;">o odi</tspan><tspan x="27.2" y="0" style="fill:#020000; font-family:'Helvetica'; font-size:4.8389px;">o</tspan><tspan x="29.7" y="0" style="fill:#020000; font-family:'Helvetica'; font-size:4.8389px;">, dapibus ac facilisis in, egestas eget quam.</tspan></text>
			</g>
		</g>
	</g>
</g>
<g id="Lorum_Ipsum__x28_1_sentence_x29__13_">
	<g>
		<defs>
			<rect id="SVGID_59_" x="310.4" y="564.3" width="115" height="5.3"/>
		</defs>
		<clipPath id="SVGID_60_">
			<use xlink:href="#SVGID_59_"  style="overflow:visible;"/>
		</clipPath>
		<g style="clip-path:url(#SVGID_60_);">
			<defs>
				<rect id="SVGID_61_" x="310.4" y="564.2" width="115" height="5.3"/>
			</defs>
			<clipPath id="SVGID_62_">
				<use xlink:href="#SVGID_61_"  style="overflow:visible;"/>
			</clipPath>
			<g style="clip-path:url(#SVGID_62_);">
				<text transform="matrix(1 0 0 1 310.3906 568.3008)"><tspan x="0" y="0" style="fill:#020000; font-family:'Helvetica'; font-size:4.8389px;">C</tspan><tspan x="2.8" y="0" style="fill:#020000; font-family:'Helvetica'; font-size:4.8389px;">r</tspan><tspan x="4.4" y="0" style="fill:#020000; font-family:'Helvetica'; font-size:4.8389px;">as jus</tspan><tspan x="15.4" y="0" style="fill:#020000; font-family:'Helvetica'; font-size:4.8389px;">t</tspan><tspan x="17" y="0" style="fill:#020000; font-family:'Helvetica'; font-size:4.8389px;">o odi</tspan><tspan x="27.2" y="0" style="fill:#020000; font-family:'Helvetica'; font-size:4.8389px;">o</tspan><tspan x="29.7" y="0" style="fill:#020000; font-family:'Helvetica'; font-size:4.8389px;">, dapibus ac facilisis in, egestas eget quam.</tspan></text>
			</g>
		</g>
	</g>
</g>
<g id="Lorum_Ipsum__x28_1_sentence_x29__14_">
	<g>
		<defs>
			<rect id="SVGID_63_" x="454.7" y="564.3" width="115" height="5.3"/>
		</defs>
		<clipPath id="SVGID_64_">
			<use xlink:href="#SVGID_63_"  style="overflow:visible;"/>
		</clipPath>
		<g style="clip-path:url(#SVGID_64_);">
			<defs>
				<rect id="SVGID_65_" x="454.7" y="564.2" width="115" height="5.3"/>
			</defs>
			<clipPath id="SVGID_66_">
				<use xlink:href="#SVGID_65_"  style="overflow:visible;"/>
			</clipPath>
			<g style="clip-path:url(#SVGID_66_);">
				<text transform="matrix(1 0 0 1 454.7246 568.3008)"><tspan x="0" y="0" style="fill:#020000; font-family:'Helvetica'; font-size:4.8389px;">C</tspan><tspan x="2.8" y="0" style="fill:#020000; font-family:'Helvetica'; font-size:4.8389px;">r</tspan><tspan x="4.4" y="0" style="fill:#020000; font-family:'Helvetica'; font-size:4.8389px;">as jus</tspan><tspan x="15.4" y="0" style="fill:#020000; font-family:'Helvetica'; font-size:4.8389px;">t</tspan><tspan x="17" y="0" style="fill:#020000; font-family:'Helvetica'; font-size:4.8389px;">o odi</tspan><tspan x="27.2" y="0" style="fill:#020000; font-family:'Helvetica'; font-size:4.8389px;">o</tspan><tspan x="29.7" y="0" style="fill:#020000; font-family:'Helvetica'; font-size:4.8389px;">, dapibus ac facilisis in, egestas eget quam.</tspan></text>
			</g>
		</g>
	</g>
</g>
<g id="Thumbnails__x28_50x50px_x29__12_">
	<g>
		<defs>
			<rect id="SVGID_67_" x="13.7" y="582.4" width="134" height="134"/>
		</defs>
		<clipPath id="SVGID_68_">
			<use xlink:href="#SVGID_67_"  style="overflow:visible;"/>
		</clipPath>
		<rect x="16" y="584.6" style="clip-path:url(#SVGID_68_);fill:#CCCCCC;" width="129.5" height="129.5"/>
		<path style="clip-path:url(#SVGID_68_);fill:#989999;" d="M17.3,586h126.9v126.9H17.3V586z M14.7,715.4h132.1V583.3H14.7V715.4z"
			/>
		<g style="clip-path:url(#SVGID_68_);">
			<defs>
				<rect id="SVGID_69_" x="13.7" y="582.4" width="134" height="134"/>
			</defs>
			<clipPath id="SVGID_70_">
				<use xlink:href="#SVGID_69_"  style="overflow:visible;"/>
			</clipPath>
			
				<line style="clip-path:url(#SVGID_70_);fill:none;stroke:#989999;stroke-width:2.6428;stroke-miterlimit:10;" x1="14.7" y1="583.3" x2="146.8" y2="715.4"/>
			
				<line style="clip-path:url(#SVGID_70_);fill:none;stroke:#989999;stroke-width:2.6428;stroke-miterlimit:10;" x1="14.7" y1="715.4" x2="146.8" y2="583.3"/>
		</g>
	</g>
</g>
<g id="Thumbnails__x28_50x50px_x29__11_">
	<g>
		<defs>
			<rect id="SVGID_71_" x="157.7" y="582.4" width="134" height="134"/>
		</defs>
		<clipPath id="SVGID_72_">
			<use xlink:href="#SVGID_71_"  style="overflow:visible;"/>
		</clipPath>
		<rect x="160" y="584.6" style="clip-path:url(#SVGID_72_);fill:#CCCCCC;" width="129.5" height="129.5"/>
		<path style="clip-path:url(#SVGID_72_);fill:#989999;" d="M161.3,586h126.9v126.9H161.3V586z M158.7,715.4h132.1V583.3H158.7
			V715.4z"/>
		<g style="clip-path:url(#SVGID_72_);">
			<defs>
				<rect id="SVGID_73_" x="157.7" y="582.4" width="134" height="134"/>
			</defs>
			<clipPath id="SVGID_74_">
				<use xlink:href="#SVGID_73_"  style="overflow:visible;"/>
			</clipPath>
			
				<line style="clip-path:url(#SVGID_74_);fill:none;stroke:#989999;stroke-width:2.6428;stroke-miterlimit:10;" x1="158.7" y1="583.3" x2="290.8" y2="715.4"/>
			
				<line style="clip-path:url(#SVGID_74_);fill:none;stroke:#989999;stroke-width:2.6428;stroke-miterlimit:10;" x1="158.7" y1="715.4" x2="290.8" y2="583.3"/>
		</g>
	</g>
</g>
<g id="Thumbnails__x28_50x50px_x29__10_">
	<g>
		<defs>
			<rect id="SVGID_75_" x="301.7" y="582.4" width="134" height="134"/>
		</defs>
		<clipPath id="SVGID_76_">
			<use xlink:href="#SVGID_75_"  style="overflow:visible;"/>
		</clipPath>
		<rect x="304" y="584.6" style="clip-path:url(#SVGID_76_);fill:#CCCCCC;" width="129.5" height="129.5"/>
		<path style="clip-path:url(#SVGID_76_);fill:#989999;" d="M305.3,586h126.9v126.9H305.3V586z M302.7,715.4h132.1V583.3H302.7
			V715.4z"/>
		<g style="clip-path:url(#SVGID_76_);">
			<defs>
				<rect id="SVGID_77_" x="301.7" y="582.4" width="134" height="134"/>
			</defs>
			<clipPath id="SVGID_78_">
				<use xlink:href="#SVGID_77_"  style="overflow:visible;"/>
			</clipPath>
			
				<line style="clip-path:url(#SVGID_78_);fill:none;stroke:#989999;stroke-width:2.6428;stroke-miterlimit:10;" x1="302.7" y1="583.3" x2="434.8" y2="715.4"/>
			
				<line style="clip-path:url(#SVGID_78_);fill:none;stroke:#989999;stroke-width:2.6428;stroke-miterlimit:10;" x1="302.7" y1="715.4" x2="434.8" y2="583.3"/>
		</g>
	</g>
</g>
<g id="Thumbnails__x28_50x50px_x29__9_">
	<g>
		<defs>
			<rect id="SVGID_79_" x="447.7" y="582.4" width="134" height="134"/>
		</defs>
		<clipPath id="SVGID_80_">
			<use xlink:href="#SVGID_79_"  style="overflow:visible;"/>
		</clipPath>
		<rect x="450" y="584.6" style="clip-path:url(#SVGID_80_);fill:#CCCCCC;" width="129.5" height="129.5"/>
		<path style="clip-path:url(#SVGID_80_);fill:#989999;" d="M451.3,586h126.9v126.9H451.3V586z M448.7,715.4h132.1V583.3H448.7
			V715.4z"/>
		<g style="clip-path:url(#SVGID_80_);">
			<defs>
				<rect id="SVGID_81_" x="447.7" y="582.4" width="134" height="134"/>
			</defs>
			<clipPath id="SVGID_82_">
				<use xlink:href="#SVGID_81_"  style="overflow:visible;"/>
			</clipPath>
			
				<line style="clip-path:url(#SVGID_82_);fill:none;stroke:#989999;stroke-width:2.6428;stroke-miterlimit:10;" x1="448.7" y1="583.3" x2="580.8" y2="715.4"/>
			
				<line style="clip-path:url(#SVGID_82_);fill:none;stroke:#989999;stroke-width:2.6428;stroke-miterlimit:10;" x1="448.7" y1="715.4" x2="580.8" y2="583.3"/>
		</g>
	</g>
</g>
<g id="Lorum_Ipsum__x28_1_sentence_x29__18_">
	<g>
		<defs>
			<rect id="SVGID_83_" x="22.7" y="727.3" width="115" height="5.3"/>
		</defs>
		<clipPath id="SVGID_84_">
			<use xlink:href="#SVGID_83_"  style="overflow:visible;"/>
		</clipPath>
		<g style="clip-path:url(#SVGID_84_);">
			<defs>
				<rect id="SVGID_85_" x="22.7" y="727.2" width="115" height="5.3"/>
			</defs>
			<clipPath id="SVGID_86_">
				<use xlink:href="#SVGID_85_"  style="overflow:visible;"/>
			</clipPath>
			<g style="clip-path:url(#SVGID_86_);">
				<text transform="matrix(1 0 0 1 22.7241 731.3008)"><tspan x="0" y="0" style="fill:#020000; font-family:'Helvetica'; font-size:4.8389px;">C</tspan><tspan x="2.8" y="0" style="fill:#020000; font-family:'Helvetica'; font-size:4.8389px;">r</tspan><tspan x="4.4" y="0" style="fill:#020000; font-family:'Helvetica'; font-size:4.8389px;">as jus</tspan><tspan x="15.4" y="0" style="fill:#020000; font-family:'Helvetica'; font-size:4.8389px;">t</tspan><tspan x="17" y="0" style="fill:#020000; font-family:'Helvetica'; font-size:4.8389px;">o odi</tspan><tspan x="27.2" y="0" style="fill:#020000; font-family:'Helvetica'; font-size:4.8389px;">o</tspan><tspan x="29.7" y="0" style="fill:#020000; font-family:'Helvetica'; font-size:4.8389px;">, dapibus ac facilisis in, egestas eget quam.</tspan></text>
			</g>
		</g>
	</g>
</g>
<g id="Lorum_Ipsum__x28_1_sentence_x29__17_">
	<g>
		<defs>
			<rect id="SVGID_87_" x="167.1" y="727.3" width="115" height="5.3"/>
		</defs>
		<clipPath id="SVGID_88_">
			<use xlink:href="#SVGID_87_"  style="overflow:visible;"/>
		</clipPath>
		<g style="clip-path:url(#SVGID_88_);">
			<defs>
				<rect id="SVGID_89_" x="167.1" y="727.2" width="115" height="5.3"/>
			</defs>
			<clipPath id="SVGID_90_">
				<use xlink:href="#SVGID_89_"  style="overflow:visible;"/>
			</clipPath>
			<g style="clip-path:url(#SVGID_90_);">
				<text transform="matrix(1 0 0 1 167.0571 731.3008)"><tspan x="0" y="0" style="fill:#020000; font-family:'Helvetica'; font-size:4.8389px;">C</tspan><tspan x="2.8" y="0" style="fill:#020000; font-family:'Helvetica'; font-size:4.8389px;">r</tspan><tspan x="4.4" y="0" style="fill:#020000; font-family:'Helvetica'; font-size:4.8389px;">as jus</tspan><tspan x="15.4" y="0" style="fill:#020000; font-family:'Helvetica'; font-size:4.8389px;">t</tspan><tspan x="17" y="0" style="fill:#020000; font-family:'Helvetica'; font-size:4.8389px;">o odi</tspan><tspan x="27.2" y="0" style="fill:#020000; font-family:'Helvetica'; font-size:4.8389px;">o</tspan><tspan x="29.7" y="0" style="fill:#020000; font-family:'Helvetica'; font-size:4.8389px;">, dapibus ac facilisis in, egestas eget quam.</tspan></text>
			</g>
		</g>
	</g>
</g>
<g id="Lorum_Ipsum__x28_1_sentence_x29__16_">
	<g>
		<defs>
			<rect id="SVGID_91_" x="311.4" y="727.3" width="115" height="5.3"/>
		</defs>
		<clipPath id="SVGID_92_">
			<use xlink:href="#SVGID_91_"  style="overflow:visible;"/>
		</clipPath>
		<g style="clip-path:url(#SVGID_92_);">
			<defs>
				<rect id="SVGID_93_" x="311.4" y="727.2" width="115" height="5.3"/>
			</defs>
			<clipPath id="SVGID_94_">
				<use xlink:href="#SVGID_93_"  style="overflow:visible;"/>
			</clipPath>
			<g style="clip-path:url(#SVGID_94_);">
				<text transform="matrix(1 0 0 1 311.3906 731.3008)"><tspan x="0" y="0" style="fill:#020000; font-family:'Helvetica'; font-size:4.8389px;">C</tspan><tspan x="2.8" y="0" style="fill:#020000; font-family:'Helvetica'; font-size:4.8389px;">r</tspan><tspan x="4.4" y="0" style="fill:#020000; font-family:'Helvetica'; font-size:4.8389px;">as jus</tspan><tspan x="15.4" y="0" style="fill:#020000; font-family:'Helvetica'; font-size:4.8389px;">t</tspan><tspan x="17" y="0" style="fill:#020000; font-family:'Helvetica'; font-size:4.8389px;">o odi</tspan><tspan x="27.2" y="0" style="fill:#020000; font-family:'Helvetica'; font-size:4.8389px;">o</tspan><tspan x="29.7" y="0" style="fill:#020000; font-family:'Helvetica'; font-size:4.8389px;">, dapibus ac facilisis in, egestas eget quam.</tspan></text>
			</g>
		</g>
	</g>
</g>
<g id="Lorum_Ipsum__x28_1_sentence_x29__15_">
	<g>
		<defs>
			<rect id="SVGID_95_" x="455.7" y="727.3" width="115" height="5.3"/>
		</defs>
		<clipPath id="SVGID_96_">
			<use xlink:href="#SVGID_95_"  style="overflow:visible;"/>
		</clipPath>
		<g style="clip-path:url(#SVGID_96_);">
			<defs>
				<rect id="SVGID_97_" x="455.7" y="727.2" width="115" height="5.3"/>
			</defs>
			<clipPath id="SVGID_98_">
				<use xlink:href="#SVGID_97_"  style="overflow:visible;"/>
			</clipPath>
			<g style="clip-path:url(#SVGID_98_);">
				<text transform="matrix(1 0 0 1 455.7246 731.3008)"><tspan x="0" y="0" style="fill:#020000; font-family:'Helvetica'; font-size:4.8389px;">C</tspan><tspan x="2.8" y="0" style="fill:#020000; font-family:'Helvetica'; font-size:4.8389px;">r</tspan><tspan x="4.4" y="0" style="fill:#020000; font-family:'Helvetica'; font-size:4.8389px;">as jus</tspan><tspan x="15.4" y="0" style="fill:#020000; font-family:'Helvetica'; font-size:4.8389px;">t</tspan><tspan x="17" y="0" style="fill:#020000; font-family:'Helvetica'; font-size:4.8389px;">o odi</tspan><tspan x="27.2" y="0" style="fill:#020000; font-family:'Helvetica'; font-size:4.8389px;">o</tspan><tspan x="29.7" y="0" style="fill:#020000; font-family:'Helvetica'; font-size:4.8389px;">, dapibus ac facilisis in, egestas eget quam.</tspan></text>
			</g>
		</g>
	</g>
</g>
</svg>
