<?xml version="1.0" encoding="utf-8"?>
<!-- Generator: Adobe Illustrator 23.0.3, SVG Export Plug-In . SVG Version: 6.00 Build 0)  -->
<svg version="1.1" id="Layer_1" xmlns="http://www.w3.org/2000/svg" xmlns:xlink="http://www.w3.org/1999/xlink" x="0px" y="0px"
	 viewBox="0 0 595.3 841.9" style="enable-background:new 0 0 595.3 841.9;" xml:space="preserve">
<g id="Menu_4_buttons_4_">
	<g>
		<defs>
			<rect id="SVGID_1_" x="198.1" y="70.3" width="196.3" height="15.6"/>
		</defs>
		<clipPath id="SVGID_2_">
			<use xlink:href="#SVGID_1_"  style="overflow:visible;"/>
		</clipPath>
		<rect x="198.1" y="70.3" style="clip-path:url(#SVGID_2_);fill:#979797;" width="44.8" height="15.6"/>
		<rect x="198.1" y="70.3" style="clip-path:url(#SVGID_2_);fill:#4C4C4C;" width="44.8" height="15.6"/>
		<g style="clip-path:url(#SVGID_2_);">
			<text transform="matrix(1 0 0 1 208.1382 80.1357)"><tspan x="0" y="0" style="fill:#F2F2F1; font-family:'Helvetica'; font-size:7px;">BU</tspan><tspan x="8.3" y="0" style="fill:#F2F2F1; font-family:'Helvetica'; font-size:7px;">T</tspan><tspan x="12.1" y="0" style="fill:#F2F2F1; font-family:'Helvetica'; font-size:7px;">T</tspan><tspan x="15.4" y="0" style="fill:#F2F2F1; font-family:'Helvetica'; font-size:7px;">ON</tspan></text>
		</g>
		<rect x="248.6" y="70.3" style="clip-path:url(#SVGID_2_);fill:#979797;" width="44.8" height="15.6"/>
		<rect x="248.6" y="70.3" style="clip-path:url(#SVGID_2_);fill:#4C4C4C;" width="44.8" height="15.6"/>
		<g style="clip-path:url(#SVGID_2_);">
			<text transform="matrix(1 0 0 1 258.6382 80.1357)"><tspan x="0" y="0" style="fill:#F2F2F1; font-family:'Helvetica'; font-size:7px;">BU</tspan><tspan x="8.3" y="0" style="fill:#F2F2F1; font-family:'Helvetica'; font-size:7px;">T</tspan><tspan x="12.1" y="0" style="fill:#F2F2F1; font-family:'Helvetica'; font-size:7px;">T</tspan><tspan x="15.4" y="0" style="fill:#F2F2F1; font-family:'Helvetica'; font-size:7px;">ON</tspan></text>
		</g>
		<rect x="299.1" y="70.3" style="clip-path:url(#SVGID_2_);fill:#979797;" width="44.8" height="15.6"/>
		<rect x="299.1" y="70.3" style="clip-path:url(#SVGID_2_);fill:#4C4C4C;" width="44.8" height="15.6"/>
		<g style="clip-path:url(#SVGID_2_);">
			<text transform="matrix(1 0 0 1 309.1387 80.1357)"><tspan x="0" y="0" style="fill:#F2F2F1; font-family:'Helvetica'; font-size:7px;">BU</tspan><tspan x="8.3" y="0" style="fill:#F2F2F1; font-family:'Helvetica'; font-size:7px;">T</tspan><tspan x="12.1" y="0" style="fill:#F2F2F1; font-family:'Helvetica'; font-size:7px;">T</tspan><tspan x="15.4" y="0" style="fill:#F2F2F1; font-family:'Helvetica'; font-size:7px;">ON</tspan></text>
		</g>
		<rect x="349.6" y="70.3" style="clip-path:url(#SVGID_2_);fill:#979797;" width="44.8" height="15.6"/>
		<rect x="349.6" y="70.3" style="clip-path:url(#SVGID_2_);fill:#4C4C4C;" width="44.8" height="15.6"/>
		<g style="clip-path:url(#SVGID_2_);">
			<text transform="matrix(1 0 0 1 359.6387 80.1357)"><tspan x="0" y="0" style="fill:#F2F2F1; font-family:'Helvetica'; font-size:7px;">BU</tspan><tspan x="8.3" y="0" style="fill:#F2F2F1; font-family:'Helvetica'; font-size:7px;">T</tspan><tspan x="12.1" y="0" style="fill:#F2F2F1; font-family:'Helvetica'; font-size:7px;">T</tspan><tspan x="15.4" y="0" style="fill:#F2F2F1; font-family:'Helvetica'; font-size:7px;">ON</tspan></text>
		</g>
	</g>
</g>
<g id="Thumbnails__x28_50x50px_x29__14_">
	<g>
		<defs>
			<rect id="SVGID_3_" x="20.1" y="15.3" width="50.7" height="50.7"/>
		</defs>
		<clipPath id="SVGID_4_">
			<use xlink:href="#SVGID_3_"  style="overflow:visible;"/>
		</clipPath>
		<rect x="21" y="16.1" style="clip-path:url(#SVGID_4_);fill:#CBCBCB;" width="49" height="49"/>
		<path style="clip-path:url(#SVGID_4_);fill:#979797;" d="M21.5,16.6h48v48h-48V16.6z M20.5,65.6h50v-50h-50V65.6z"/>
		<g style="clip-path:url(#SVGID_4_);">
			<defs>
				<rect id="SVGID_5_" x="20.1" y="15.3" width="50.7" height="50.7"/>
			</defs>
			<clipPath id="SVGID_6_">
				<use xlink:href="#SVGID_5_"  style="overflow:visible;"/>
			</clipPath>
			
				<line style="clip-path:url(#SVGID_6_);fill:none;stroke:#979797;stroke-miterlimit:10;" x1="20.5" y1="15.6" x2="70.5" y2="65.6"/>
			
				<line style="clip-path:url(#SVGID_6_);fill:none;stroke:#979797;stroke-miterlimit:10;" x1="20.5" y1="65.6" x2="70.5" y2="15.6"/>
		</g>
	</g>
</g>
<g id="Avatar__x28_150px_x29__4_">
	<g>
		<defs>
			<rect id="SVGID_7_" x="540.1" y="24.3" width="33" height="33"/>
		</defs>
		<clipPath id="SVGID_8_">
			<use xlink:href="#SVGID_7_"  style="overflow:visible;"/>
		</clipPath>
		<rect x="540.2" y="24.4" style="clip-path:url(#SVGID_8_);fill:#CBCBCB;" width="32.8" height="32.8"/>
		<path style="clip-path:url(#SVGID_8_);fill:#979797;" d="M540.4,24.5h32.6v32.6h-32.6V24.5z M540.1,57.3h33v-33h-33V57.3z"/>
		<g style="clip-path:url(#SVGID_8_);">
			<defs>
				<rect id="SVGID_9_" x="540.1" y="24.3" width="33" height="33"/>
			</defs>
			<clipPath id="SVGID_10_">
				<use xlink:href="#SVGID_9_"  style="overflow:visible;"/>
			</clipPath>
			<path style="clip-path:url(#SVGID_10_);fill:#979797;" d="M567.4,57.1c0,0.1,0,0.1,0,0.2h-21.6c0-0.1,0-0.1,0-0.2
				c0-7,3.6-12.9,8.4-14.4c-1.6-0.9-2.7-2.7-2.7-4.7c0-3,2.4-5.4,5.4-5.4c3,0,5.4,2.4,5.4,5.4c0,2.1-1.2,3.9-2.9,4.8
				C564,44.5,567.4,50.3,567.4,57.1"/>
		</g>
	</g>
</g>
<text transform="matrix(1 0 0 1 219.8813 41.2773)" style="font-family:'MyriadPro-Regular'; font-size:36px;">Heading 1</text>
<line style="fill:none;stroke:#898480;stroke-miterlimit:10;" x1="1.2" y1="97.9" x2="596.2" y2="97.9"/>
<rect x="13.8" y="133.7" style="fill:#FFFFFF;stroke:#000000;stroke-miterlimit:10;" width="568" height="479.9"/>
<line style="fill:none;stroke:#000000;stroke-miterlimit:10;" x1="157.8" y1="133.7" x2="157.8" y2="613.6"/>
<rect x="181" y="171.5" style="fill:#FFFFFF;stroke:#000000;stroke-miterlimit:10;" width="180" height="25"/>
<rect x="380.2" y="171.5" style="fill:#FFFFFF;stroke:#000000;stroke-miterlimit:10;" width="180" height="25"/>
<rect x="181" y="230.9" style="fill:#FFFFFF;stroke:#000000;stroke-miterlimit:10;" width="180" height="25"/>
<rect x="380.2" y="230.9" style="fill:#FFFFFF;stroke:#000000;stroke-miterlimit:10;" width="180" height="25"/>
<rect x="181" y="366.7" style="fill:#FFFFFF;stroke:#000000;stroke-miterlimit:10;" width="377.7" height="167.7"/>
<text transform="matrix(1 0 0 1 187.3112 159.1927)" style="font-family:'MyriadPro-Regular'; font-size:12px;">Lorem ipsum</text>
<text transform="matrix(1 0 0 1 187.3106 351.6743)" style="font-family:'MyriadPro-Regular'; font-size:12px;">Lorem ipsum</text>
<text transform="matrix(1 0 0 1 387.5345 159.1932)" style="font-family:'MyriadPro-Regular'; font-size:12px;">Lorem ipsum</text>
<text transform="matrix(1 0 0 1 187.3108 220.3488)" style="font-family:'MyriadPro-Regular'; font-size:12px;">Lorem ipsum</text>
<rect x="181" y="298.8" style="fill:#FFFFFF;stroke:#000000;stroke-miterlimit:10;" width="180" height="25"/>
<text transform="matrix(1 0 0 1 186.2564 290.3227)" style="font-family:'MyriadPro-Regular'; font-size:12px;">Lorem ipsum</text>
<text transform="matrix(1 0 0 1 387.5345 220.3489)" style="font-family:'MyriadPro-Regular'; font-size:12px;">Lorem ipsum</text>
<g id="Button_1_">
	<g>
		<defs>
			<rect id="SVGID_11_" x="181" y="554" width="377.7" height="26"/>
		</defs>
		<clipPath id="SVGID_12_">
			<use xlink:href="#SVGID_11_"  style="overflow:visible;"/>
		</clipPath>
		<rect x="182.9" y="554.5" style="clip-path:url(#SVGID_12_);fill:#F2F2F2;" width="374" height="25"/>
		<g style="clip-path:url(#SVGID_12_);">
			<defs>
				<rect id="SVGID_13_" x="181" y="554" width="377.7" height="26"/>
			</defs>
			<clipPath id="SVGID_14_">
				<use xlink:href="#SVGID_13_"  style="overflow:visible;"/>
			</clipPath>
			
				<rect x="182.9" y="554.5" style="clip-path:url(#SVGID_14_);fill:none;stroke:#4B4B4B;stroke-width:1.9339;stroke-miterlimit:10;" width="374" height="25"/>
		</g>
	</g>
</g>
<text transform="matrix(1 0 0 1 29.5244 165.8967)" style="font-family:'MyriadPro-Regular'; font-size:20.0101px;">Lorem ipsum</text>
<text transform="matrix(1 0 0 1 29.5244 198.9909)" style="font-family:'MyriadPro-Regular'; font-size:20.0101px;">Lorem ipsum</text>
<text transform="matrix(1 0 0 1 29.5244 232.0845)" style="font-family:'MyriadPro-Regular'; font-size:20.0101px;">Lorem ipsum</text>
<text transform="matrix(1 0 0 1 29.5244 265.1791)" style="font-family:'MyriadPro-Regular'; font-size:20.0101px;">Lorem ipsum</text>
</svg>
