<?xml version="1.0" encoding="utf-8"?>
<!-- Generator: Adobe Illustrator 23.0.3, SVG Export Plug-In . SVG Version: 6.00 Build 0)  -->
<svg version="1.1" id="Layer_1" xmlns="http://www.w3.org/2000/svg" xmlns:xlink="http://www.w3.org/1999/xlink" x="0px" y="0px"
	 viewBox="0 0 595.3 841.9" style="enable-background:new 0 0 595.3 841.9;" xml:space="preserve">
<g id="Menu_4_buttons_1_">
	<g>
		<defs>
			<rect id="SVGID_1_" x="198" y="67" width="196.3" height="15.6"/>
		</defs>
		<clipPath id="SVGID_2_">
			<use xlink:href="#SVGID_1_"  style="overflow:visible;"/>
		</clipPath>
		<rect x="198" y="67" style="clip-path:url(#SVGID_2_);fill:#989999;" width="44.8" height="15.6"/>
		<rect x="198" y="67" style="clip-path:url(#SVGID_2_);fill:#4B4B4B;" width="44.8" height="15.6"/>
		<g style="clip-path:url(#SVGID_2_);">
			<text transform="matrix(1 0 0 1 208 76.8594)"><tspan x="0" y="0" style="fill:#F2F2F2; font-family:'Helvetica'; font-size:7px;">BU</tspan><tspan x="8.3" y="0" style="fill:#F2F2F2; font-family:'Helvetica'; font-size:7px;">T</tspan><tspan x="12.1" y="0" style="fill:#F2F2F2; font-family:'Helvetica'; font-size:7px;">T</tspan><tspan x="15.4" y="0" style="fill:#F2F2F2; font-family:'Helvetica'; font-size:7px;">ON</tspan></text>
		</g>
		<rect x="248.5" y="67" style="clip-path:url(#SVGID_2_);fill:#989999;" width="44.8" height="15.6"/>
		<rect x="248.5" y="67" style="clip-path:url(#SVGID_2_);fill:#4B4B4B;" width="44.8" height="15.6"/>
		<g style="clip-path:url(#SVGID_2_);">
			<text transform="matrix(1 0 0 1 258.5 76.8594)"><tspan x="0" y="0" style="fill:#F2F2F2; font-family:'Helvetica'; font-size:7px;">BU</tspan><tspan x="8.3" y="0" style="fill:#F2F2F2; font-family:'Helvetica'; font-size:7px;">T</tspan><tspan x="12.1" y="0" style="fill:#F2F2F2; font-family:'Helvetica'; font-size:7px;">T</tspan><tspan x="15.4" y="0" style="fill:#F2F2F2; font-family:'Helvetica'; font-size:7px;">ON</tspan></text>
		</g>
		<rect x="299" y="67" style="clip-path:url(#SVGID_2_);fill:#989999;" width="44.8" height="15.6"/>
		<rect x="299" y="67" style="clip-path:url(#SVGID_2_);fill:#4B4B4B;" width="44.8" height="15.6"/>
		<g style="clip-path:url(#SVGID_2_);">
			<text transform="matrix(1 0 0 1 309 76.8594)"><tspan x="0" y="0" style="fill:#F2F2F2; font-family:'Helvetica'; font-size:7px;">BU</tspan><tspan x="8.3" y="0" style="fill:#F2F2F2; font-family:'Helvetica'; font-size:7px;">T</tspan><tspan x="12.1" y="0" style="fill:#F2F2F2; font-family:'Helvetica'; font-size:7px;">T</tspan><tspan x="15.4" y="0" style="fill:#F2F2F2; font-family:'Helvetica'; font-size:7px;">ON</tspan></text>
		</g>
		<rect x="349.5" y="67" style="clip-path:url(#SVGID_2_);fill:#989999;" width="44.8" height="15.6"/>
		<rect x="349.5" y="67" style="clip-path:url(#SVGID_2_);fill:#4B4B4B;" width="44.8" height="15.6"/>
		<g style="clip-path:url(#SVGID_2_);">
			<text transform="matrix(1 0 0 1 359.5 76.8594)"><tspan x="0" y="0" style="fill:#F2F2F2; font-family:'Helvetica'; font-size:7px;">BU</tspan><tspan x="8.3" y="0" style="fill:#F2F2F2; font-family:'Helvetica'; font-size:7px;">T</tspan><tspan x="12.1" y="0" style="fill:#F2F2F2; font-family:'Helvetica'; font-size:7px;">T</tspan><tspan x="15.4" y="0" style="fill:#F2F2F2; font-family:'Helvetica'; font-size:7px;">ON</tspan></text>
		</g>
	</g>
</g>
<g id="Thumbnails__x28_50x50px_x29__1_">
	<g>
		<defs>
			<rect id="SVGID_3_" x="20" y="12" width="50.7" height="50.7"/>
		</defs>
		<clipPath id="SVGID_4_">
			<use xlink:href="#SVGID_3_"  style="overflow:visible;"/>
		</clipPath>
		<rect x="20.9" y="12.9" style="clip-path:url(#SVGID_4_);fill:#CCCCCC;" width="49" height="49"/>
		<path style="clip-path:url(#SVGID_4_);fill:#989999;" d="M21.4,13.4h48v48h-48V13.4z M20.4,62.4h50v-50h-50V62.4z"/>
		<g style="clip-path:url(#SVGID_4_);">
			<defs>
				<rect id="SVGID_5_" x="20" y="12" width="50.7" height="50.7"/>
			</defs>
			<clipPath id="SVGID_6_">
				<use xlink:href="#SVGID_5_"  style="overflow:visible;"/>
			</clipPath>
			
				<line style="clip-path:url(#SVGID_6_);fill:none;stroke:#989999;stroke-miterlimit:10;" x1="20.4" y1="12.4" x2="70.4" y2="62.4"/>
			
				<line style="clip-path:url(#SVGID_6_);fill:none;stroke:#989999;stroke-miterlimit:10;" x1="20.4" y1="62.4" x2="70.4" y2="12.4"/>
		</g>
	</g>
</g>
<g id="Avatar__x28_150px_x29__1_">
	<g>
		<defs>
			<rect id="SVGID_7_" x="540" y="21" width="33" height="33"/>
		</defs>
		<clipPath id="SVGID_8_">
			<use xlink:href="#SVGID_7_"  style="overflow:visible;"/>
		</clipPath>
		<rect x="540.1" y="21.1" style="clip-path:url(#SVGID_8_);fill:#CCCCCC;" width="32.8" height="32.8"/>
		<path style="clip-path:url(#SVGID_8_);fill:#989999;" d="M540.2,21.2h32.6v32.6h-32.6V21.2z M540,54h33V21h-33V54z"/>
		<g style="clip-path:url(#SVGID_8_);">
			<defs>
				<rect id="SVGID_9_" x="540" y="21" width="33" height="33"/>
			</defs>
			<clipPath id="SVGID_10_">
				<use xlink:href="#SVGID_9_"  style="overflow:visible;"/>
			</clipPath>
			<path style="clip-path:url(#SVGID_10_);fill:#989999;" d="M567.3,53.8c0,0.1,0,0.1,0,0.2h-21.6c0-0.1,0-0.1,0-0.2
				c0-7,3.6-12.9,8.4-14.4c-1.6-0.9-2.7-2.7-2.7-4.7c0-3,2.4-5.4,5.4-5.4c3,0,5.4,2.4,5.4,5.4c0,2.1-1.2,3.9-2.9,4.8
				C563.9,41.3,567.3,47,567.3,53.8"/>
		</g>
	</g>
</g>
<text transform="matrix(1 0 0 1 219.7433 38.001)" style="font-family:'MyriadPro-Regular'; font-size:36px;">Heading 1</text>
<line style="fill:none;stroke:#000000;stroke-miterlimit:10;" x1="-1" y1="99" x2="594" y2="99"/>
<g id="Img__x28_200x100px_x29__1_">
	<g>
		<defs>
			<rect id="SVGID_11_" x="-1" y="99" width="594" height="215"/>
		</defs>
		<clipPath id="SVGID_12_">
			<use xlink:href="#SVGID_11_"  style="overflow:visible;"/>
		</clipPath>
		<rect x="1.1" y="101" style="clip-path:url(#SVGID_12_);fill:#CCCCCC;" width="589.7" height="211"/>
		<path style="clip-path:url(#SVGID_12_);fill:#989999;" d="M2.6,102.1h586.8v208.8H2.6V102.1z M-0.3,313h592.7V100H-0.3V313z"/>
		<g style="clip-path:url(#SVGID_12_);">
			<defs>
				<rect id="SVGID_13_" x="-1" y="99" width="594" height="215"/>
			</defs>
			<clipPath id="SVGID_14_">
				<use xlink:href="#SVGID_13_"  style="overflow:visible;"/>
			</clipPath>
			
				<line style="clip-path:url(#SVGID_14_);fill:none;stroke:#989999;stroke-width:2.513;stroke-miterlimit:10;" x1="-0.3" y1="100" x2="592.4" y2="313"/>
			
				<line style="clip-path:url(#SVGID_14_);fill:none;stroke:#989999;stroke-width:2.513;stroke-miterlimit:10;" x1="-0.3" y1="313" x2="592.4" y2="100"/>
		</g>
	</g>
</g>
<g>
	<rect x="196.5" y="248.5" style="fill:#FFFFFF;stroke:#12152F;stroke-miterlimit:10;" width="200" height="20"/>
	<g>
		<path style="fill:#FFFFFF;stroke:#12152F;stroke-miterlimit:10;" d="M384.5,259.1l6.9,6.9L384.5,259.1z"/>
		<circle style="fill:#FFFFFF;stroke:#12152F;stroke-miterlimit:10;" cx="381.4" cy="255.4" r="4.9"/>
	</g>
</g>
<text transform="matrix(1 0 0 1 27.3765 350.6709)" style="fill:#444140; font-family:'MyriadPro-Regular'; font-size:26px;">Lorem ipsum</text>
<text transform="matrix(1 0 0 1 27.3765 595.6709)" style="fill:#444140; font-family:'MyriadPro-Regular'; font-size:26px;">Lorem ipsum</text>
<text transform="matrix(1 0 0 1 439.3765 545.6709)" style="fill:#444140; font-family:'MyriadPro-Regular'; font-size:26px;">Lorem ipsum</text>
<g id="Img__x28_300x150px_x29__1_">
	<g>
		<defs>
			<rect id="SVGID_15_" x="10" y="362" width="414" height="150.9"/>
		</defs>
		<clipPath id="SVGID_16_">
			<use xlink:href="#SVGID_15_"  style="overflow:visible;"/>
		</clipPath>
		<rect x="11" y="362.9" style="clip-path:url(#SVGID_16_);fill:#CCCCCC;" width="412" height="149"/>
		<path style="clip-path:url(#SVGID_16_);fill:#989999;" d="M11.7,363.4h410.6v148H11.7V363.4z M10.3,512.4h413.4v-150H10.3V512.4z"
			/>
		<g style="clip-path:url(#SVGID_16_);">
			<defs>
				<rect id="SVGID_17_" x="10" y="362" width="414" height="150.9"/>
			</defs>
			<clipPath id="SVGID_18_">
				<use xlink:href="#SVGID_17_"  style="overflow:visible;"/>
			</clipPath>
			
				<line style="clip-path:url(#SVGID_18_);fill:none;stroke:#989999;stroke-width:1.1739;stroke-miterlimit:10;" x1="10.3" y1="362.4" x2="423.7" y2="512.4"/>
			
				<line style="clip-path:url(#SVGID_18_);fill:none;stroke:#989999;stroke-width:1.1739;stroke-miterlimit:10;" x1="10.3" y1="512.4" x2="423.7" y2="362.4"/>
		</g>
	</g>
</g>
<g id="Img__x28_300x150px_x29__2_">
	<g>
		<defs>
			<rect id="SVGID_19_" x="10" y="609" width="414" height="150.9"/>
		</defs>
		<clipPath id="SVGID_20_">
			<use xlink:href="#SVGID_19_"  style="overflow:visible;"/>
		</clipPath>
		<rect x="11" y="609.9" style="clip-path:url(#SVGID_20_);fill:#CCCCCC;" width="412" height="149"/>
		<path style="clip-path:url(#SVGID_20_);fill:#989999;" d="M11.7,610.4h410.6v148H11.7V610.4z M10.3,759.4h413.4v-150H10.3V759.4z"
			/>
		<g style="clip-path:url(#SVGID_20_);">
			<defs>
				<rect id="SVGID_21_" x="10" y="609" width="414" height="150.9"/>
			</defs>
			<clipPath id="SVGID_22_">
				<use xlink:href="#SVGID_21_"  style="overflow:visible;"/>
			</clipPath>
			
				<line style="clip-path:url(#SVGID_22_);fill:none;stroke:#989999;stroke-width:1.1739;stroke-miterlimit:10;" x1="10.3" y1="609.4" x2="423.7" y2="759.4"/>
			
				<line style="clip-path:url(#SVGID_22_);fill:none;stroke:#989999;stroke-width:1.1739;stroke-miterlimit:10;" x1="10.3" y1="759.4" x2="423.7" y2="609.4"/>
		</g>
	</g>
</g>
<g id="Thumbnails__x28_100x100px_x29__1_">
	<g>
		<defs>
			<rect id="SVGID_23_" x="435" y="362" width="149" height="149"/>
		</defs>
		<clipPath id="SVGID_24_">
			<use xlink:href="#SVGID_23_"  style="overflow:visible;"/>
		</clipPath>
		<rect x="436.3" y="363.3" style="clip-path:url(#SVGID_24_);fill:#CCCCCC;" width="146.5" height="146.5"/>
		<path style="clip-path:url(#SVGID_24_);fill:#989999;" d="M437,364h145v145H437V364z M435.5,510.5h148v-148h-148V510.5z"/>
		<g style="clip-path:url(#SVGID_24_);">
			<defs>
				<rect id="SVGID_25_" x="435" y="362" width="149" height="149"/>
			</defs>
			<clipPath id="SVGID_26_">
				<use xlink:href="#SVGID_25_"  style="overflow:visible;"/>
			</clipPath>
			
				<line style="clip-path:url(#SVGID_26_);fill:none;stroke:#989999;stroke-width:1.4795;stroke-miterlimit:10;" x1="435.5" y1="362.5" x2="583.5" y2="510.5"/>
			
				<line style="clip-path:url(#SVGID_26_);fill:none;stroke:#989999;stroke-width:1.4795;stroke-miterlimit:10;" x1="435.5" y1="510.5" x2="583.5" y2="362.5"/>
		</g>
	</g>
</g>
<g id="Lorum_Ipsum__x28_1_sentence_x29__1_">
	<g>
		<defs>
			<rect id="SVGID_27_" x="10" y="522" width="380.3" height="17.4"/>
		</defs>
		<clipPath id="SVGID_28_">
			<use xlink:href="#SVGID_27_"  style="overflow:visible;"/>
		</clipPath>
		<g style="clip-path:url(#SVGID_28_);">
			<defs>
				<rect id="SVGID_29_" x="10" y="522" width="380.3" height="17.4"/>
			</defs>
			<clipPath id="SVGID_30_">
				<use xlink:href="#SVGID_29_"  style="overflow:visible;"/>
			</clipPath>
			<g style="clip-path:url(#SVGID_30_);">
				<text transform="matrix(1 0 0 1 10 535.3926)"><tspan x="0" y="0" style="fill:#020000; font-family:'Helvetica'; font-size:16px;">C</tspan><tspan x="9.2" y="0" style="fill:#020000; font-family:'Helvetica'; font-size:16px;">r</tspan><tspan x="14.4" y="0" style="fill:#020000; font-family:'Helvetica'; font-size:16px;">as jus</tspan><tspan x="50.9" y="0" style="fill:#020000; font-family:'Helvetica'; font-size:16px;">t</tspan><tspan x="56.1" y="0" style="fill:#020000; font-family:'Helvetica'; font-size:16px;">o odi</tspan><tspan x="89.8" y="0" style="fill:#020000; font-family:'Helvetica'; font-size:16px;">o</tspan><tspan x="98.2" y="0" style="fill:#020000; font-family:'Helvetica'; font-size:16px;">, dapibus ac facilisis in, egestas eget quam.</tspan></text>
			</g>
		</g>
	</g>
</g>
<g id="Lorum_Ipsum__x28_1_sentence_x29__2_">
	<g>
		<defs>
			<rect id="SVGID_31_" x="10" y="770" width="380.3" height="17.4"/>
		</defs>
		<clipPath id="SVGID_32_">
			<use xlink:href="#SVGID_31_"  style="overflow:visible;"/>
		</clipPath>
		<g style="clip-path:url(#SVGID_32_);">
			<defs>
				<rect id="SVGID_33_" x="10" y="770" width="380.3" height="17.4"/>
			</defs>
			<clipPath id="SVGID_34_">
				<use xlink:href="#SVGID_33_"  style="overflow:visible;"/>
			</clipPath>
			<g style="clip-path:url(#SVGID_34_);">
				<text transform="matrix(1 0 0 1 10 783.3926)"><tspan x="0" y="0" style="fill:#020000; font-family:'Helvetica'; font-size:16px;">C</tspan><tspan x="9.2" y="0" style="fill:#020000; font-family:'Helvetica'; font-size:16px;">r</tspan><tspan x="14.4" y="0" style="fill:#020000; font-family:'Helvetica'; font-size:16px;">as jus</tspan><tspan x="50.9" y="0" style="fill:#020000; font-family:'Helvetica'; font-size:16px;">t</tspan><tspan x="56.1" y="0" style="fill:#020000; font-family:'Helvetica'; font-size:16px;">o odi</tspan><tspan x="89.8" y="0" style="fill:#020000; font-family:'Helvetica'; font-size:16px;">o</tspan><tspan x="98.2" y="0" style="fill:#020000; font-family:'Helvetica'; font-size:16px;">, dapibus ac facilisis in, egestas eget quam.</tspan></text>
			</g>
		</g>
	</g>
</g>
<line style="fill:none;stroke:#8C8581;stroke-miterlimit:10;" x1="10" y1="565" x2="424" y2="565"/>
<line style="fill:none;stroke:#8C8581;stroke-miterlimit:10;" x1="9" y1="803.5" x2="423" y2="803.5"/>
<rect x="438.7" y="565.5" style="fill:#FFFFFF;stroke:#8C8581;stroke-miterlimit:10;" width="142" height="247"/>
<line style="fill:none;stroke:#8C8581;stroke-miterlimit:10;" x1="438.2" y1="595.5" x2="581.2" y2="595.5"/>
<line style="fill:none;stroke:#8C8581;stroke-miterlimit:10;" x1="438.2" y1="627.5" x2="581.2" y2="627.5"/>
<line style="fill:none;stroke:#8C8581;stroke-miterlimit:10;" x1="438.2" y1="657.5" x2="581.2" y2="657.5"/>
<line style="fill:none;stroke:#8C8581;stroke-miterlimit:10;" x1="438.2" y1="689.5" x2="581.2" y2="689.5"/>
<line style="fill:none;stroke:#8C8581;stroke-miterlimit:10;" x1="438.2" y1="721.5" x2="581.2" y2="721.5"/>
<line style="fill:none;stroke:#8C8581;stroke-miterlimit:10;" x1="438.2" y1="751.5" x2="581.2" y2="751.5"/>
<line style="fill:none;stroke:#8C8581;stroke-miterlimit:10;" x1="438.2" y1="783.5" x2="581.2" y2="783.5"/>
<g id="Lorum_Ipsum__x28_1_sentence_x29__3_">
	<g>
		<defs>
			<rect id="SVGID_35_" x="444.7" y="578.3" width="130" height="5.9"/>
		</defs>
		<clipPath id="SVGID_36_">
			<use xlink:href="#SVGID_35_"  style="overflow:visible;"/>
		</clipPath>
		<g style="clip-path:url(#SVGID_36_);">
			<defs>
				<rect id="SVGID_37_" x="444.7" y="578.3" width="130" height="5.9"/>
			</defs>
			<clipPath id="SVGID_38_">
				<use xlink:href="#SVGID_37_"  style="overflow:visible;"/>
			</clipPath>
			<g style="clip-path:url(#SVGID_38_);">
				<text transform="matrix(1 0 0 1 444.6875 582.8906)"><tspan x="0" y="0" style="fill:#020000; font-family:'Helvetica'; font-size:5.4701px;">C</tspan><tspan x="3.2" y="0" style="fill:#020000; font-family:'Helvetica'; font-size:5.4701px;">r</tspan><tspan x="4.9" y="0" style="fill:#020000; font-family:'Helvetica'; font-size:5.4701px;">as jus</tspan><tspan x="17.4" y="0" style="fill:#020000; font-family:'Helvetica'; font-size:5.4701px;">t</tspan><tspan x="19.2" y="0" style="fill:#020000; font-family:'Helvetica'; font-size:5.4701px;">o odi</tspan><tspan x="30.7" y="0" style="fill:#020000; font-family:'Helvetica'; font-size:5.4701px;">o</tspan><tspan x="33.6" y="0" style="fill:#020000; font-family:'Helvetica'; font-size:5.4701px;">, dapibus ac facilisis in, egestas eget quam.</tspan></text>
			</g>
		</g>
	</g>
</g>
<g id="Lorum_Ipsum__x28_1_sentence_x29__4_">
	<g>
		<defs>
			<rect id="SVGID_39_" x="444.7" y="609" width="130" height="5.9"/>
		</defs>
		<clipPath id="SVGID_40_">
			<use xlink:href="#SVGID_39_"  style="overflow:visible;"/>
		</clipPath>
		<g style="clip-path:url(#SVGID_40_);">
			<defs>
				<rect id="SVGID_41_" x="444.7" y="609" width="130" height="5.9"/>
			</defs>
			<clipPath id="SVGID_42_">
				<use xlink:href="#SVGID_41_"  style="overflow:visible;"/>
			</clipPath>
			<g style="clip-path:url(#SVGID_42_);">
				<text transform="matrix(1 0 0 1 444.6875 613.5791)"><tspan x="0" y="0" style="fill:#020000; font-family:'Helvetica'; font-size:5.4701px;">C</tspan><tspan x="3.2" y="0" style="fill:#020000; font-family:'Helvetica'; font-size:5.4701px;">r</tspan><tspan x="4.9" y="0" style="fill:#020000; font-family:'Helvetica'; font-size:5.4701px;">as jus</tspan><tspan x="17.4" y="0" style="fill:#020000; font-family:'Helvetica'; font-size:5.4701px;">t</tspan><tspan x="19.2" y="0" style="fill:#020000; font-family:'Helvetica'; font-size:5.4701px;">o odi</tspan><tspan x="30.7" y="0" style="fill:#020000; font-family:'Helvetica'; font-size:5.4701px;">o</tspan><tspan x="33.6" y="0" style="fill:#020000; font-family:'Helvetica'; font-size:5.4701px;">, dapibus ac facilisis in, egestas eget quam.</tspan></text>
			</g>
		</g>
	</g>
</g>
<g id="Lorum_Ipsum__x28_1_sentence_x29__5_">
	<g>
		<defs>
			<rect id="SVGID_43_" x="444.7" y="638" width="130" height="5.9"/>
		</defs>
		<clipPath id="SVGID_44_">
			<use xlink:href="#SVGID_43_"  style="overflow:visible;"/>
		</clipPath>
		<g style="clip-path:url(#SVGID_44_);">
			<defs>
				<rect id="SVGID_45_" x="444.7" y="638" width="130" height="5.9"/>
			</defs>
			<clipPath id="SVGID_46_">
				<use xlink:href="#SVGID_45_"  style="overflow:visible;"/>
			</clipPath>
			<g style="clip-path:url(#SVGID_46_);">
				<text transform="matrix(1 0 0 1 444.6875 642.5791)"><tspan x="0" y="0" style="fill:#020000; font-family:'Helvetica'; font-size:5.4701px;">C</tspan><tspan x="3.2" y="0" style="fill:#020000; font-family:'Helvetica'; font-size:5.4701px;">r</tspan><tspan x="4.9" y="0" style="fill:#020000; font-family:'Helvetica'; font-size:5.4701px;">as jus</tspan><tspan x="17.4" y="0" style="fill:#020000; font-family:'Helvetica'; font-size:5.4701px;">t</tspan><tspan x="19.2" y="0" style="fill:#020000; font-family:'Helvetica'; font-size:5.4701px;">o odi</tspan><tspan x="30.7" y="0" style="fill:#020000; font-family:'Helvetica'; font-size:5.4701px;">o</tspan><tspan x="33.6" y="0" style="fill:#020000; font-family:'Helvetica'; font-size:5.4701px;">, dapibus ac facilisis in, egestas eget quam.</tspan></text>
			</g>
		</g>
	</g>
</g>
<g id="Lorum_Ipsum__x28_1_sentence_x29__6_">
	<g>
		<defs>
			<rect id="SVGID_47_" x="444.7" y="671" width="130" height="5.9"/>
		</defs>
		<clipPath id="SVGID_48_">
			<use xlink:href="#SVGID_47_"  style="overflow:visible;"/>
		</clipPath>
		<g style="clip-path:url(#SVGID_48_);">
			<defs>
				<rect id="SVGID_49_" x="444.7" y="671" width="130" height="5.9"/>
			</defs>
			<clipPath id="SVGID_50_">
				<use xlink:href="#SVGID_49_"  style="overflow:visible;"/>
			</clipPath>
			<g style="clip-path:url(#SVGID_50_);">
				<text transform="matrix(1 0 0 1 444.6875 675.5791)"><tspan x="0" y="0" style="fill:#020000; font-family:'Helvetica'; font-size:5.4701px;">C</tspan><tspan x="3.2" y="0" style="fill:#020000; font-family:'Helvetica'; font-size:5.4701px;">r</tspan><tspan x="4.9" y="0" style="fill:#020000; font-family:'Helvetica'; font-size:5.4701px;">as jus</tspan><tspan x="17.4" y="0" style="fill:#020000; font-family:'Helvetica'; font-size:5.4701px;">t</tspan><tspan x="19.2" y="0" style="fill:#020000; font-family:'Helvetica'; font-size:5.4701px;">o odi</tspan><tspan x="30.7" y="0" style="fill:#020000; font-family:'Helvetica'; font-size:5.4701px;">o</tspan><tspan x="33.6" y="0" style="fill:#020000; font-family:'Helvetica'; font-size:5.4701px;">, dapibus ac facilisis in, egestas eget quam.</tspan></text>
			</g>
		</g>
	</g>
</g>
<g id="Lorum_Ipsum__x28_1_sentence_x29__7_">
	<g>
		<defs>
			<rect id="SVGID_51_" x="444.7" y="701" width="130" height="5.9"/>
		</defs>
		<clipPath id="SVGID_52_">
			<use xlink:href="#SVGID_51_"  style="overflow:visible;"/>
		</clipPath>
		<g style="clip-path:url(#SVGID_52_);">
			<defs>
				<rect id="SVGID_53_" x="444.7" y="701" width="130" height="5.9"/>
			</defs>
			<clipPath id="SVGID_54_">
				<use xlink:href="#SVGID_53_"  style="overflow:visible;"/>
			</clipPath>
			<g style="clip-path:url(#SVGID_54_);">
				<text transform="matrix(1 0 0 1 444.6875 705.5791)"><tspan x="0" y="0" style="fill:#020000; font-family:'Helvetica'; font-size:5.4701px;">C</tspan><tspan x="3.2" y="0" style="fill:#020000; font-family:'Helvetica'; font-size:5.4701px;">r</tspan><tspan x="4.9" y="0" style="fill:#020000; font-family:'Helvetica'; font-size:5.4701px;">as jus</tspan><tspan x="17.4" y="0" style="fill:#020000; font-family:'Helvetica'; font-size:5.4701px;">t</tspan><tspan x="19.2" y="0" style="fill:#020000; font-family:'Helvetica'; font-size:5.4701px;">o odi</tspan><tspan x="30.7" y="0" style="fill:#020000; font-family:'Helvetica'; font-size:5.4701px;">o</tspan><tspan x="33.6" y="0" style="fill:#020000; font-family:'Helvetica'; font-size:5.4701px;">, dapibus ac facilisis in, egestas eget quam.</tspan></text>
			</g>
		</g>
	</g>
</g>
<g id="Lorum_Ipsum__x28_1_sentence_x29__8_">
	<g>
		<defs>
			<rect id="SVGID_55_" x="444.7" y="732" width="130" height="5.9"/>
		</defs>
		<clipPath id="SVGID_56_">
			<use xlink:href="#SVGID_55_"  style="overflow:visible;"/>
		</clipPath>
		<g style="clip-path:url(#SVGID_56_);">
			<defs>
				<rect id="SVGID_57_" x="444.7" y="732" width="130" height="5.9"/>
			</defs>
			<clipPath id="SVGID_58_">
				<use xlink:href="#SVGID_57_"  style="overflow:visible;"/>
			</clipPath>
			<g style="clip-path:url(#SVGID_58_);">
				<text transform="matrix(1 0 0 1 444.6875 736.5791)"><tspan x="0" y="0" style="fill:#020000; font-family:'Helvetica'; font-size:5.4701px;">C</tspan><tspan x="3.2" y="0" style="fill:#020000; font-family:'Helvetica'; font-size:5.4701px;">r</tspan><tspan x="4.9" y="0" style="fill:#020000; font-family:'Helvetica'; font-size:5.4701px;">as jus</tspan><tspan x="17.4" y="0" style="fill:#020000; font-family:'Helvetica'; font-size:5.4701px;">t</tspan><tspan x="19.2" y="0" style="fill:#020000; font-family:'Helvetica'; font-size:5.4701px;">o odi</tspan><tspan x="30.7" y="0" style="fill:#020000; font-family:'Helvetica'; font-size:5.4701px;">o</tspan><tspan x="33.6" y="0" style="fill:#020000; font-family:'Helvetica'; font-size:5.4701px;">, dapibus ac facilisis in, egestas eget quam.</tspan></text>
			</g>
		</g>
	</g>
</g>
<g id="Lorum_Ipsum__x28_1_sentence_x29__9_">
	<g>
		<defs>
			<rect id="SVGID_59_" x="444.7" y="761" width="130" height="5.9"/>
		</defs>
		<clipPath id="SVGID_60_">
			<use xlink:href="#SVGID_59_"  style="overflow:visible;"/>
		</clipPath>
		<g style="clip-path:url(#SVGID_60_);">
			<defs>
				<rect id="SVGID_61_" x="444.7" y="761" width="130" height="5.9"/>
			</defs>
			<clipPath id="SVGID_62_">
				<use xlink:href="#SVGID_61_"  style="overflow:visible;"/>
			</clipPath>
			<g style="clip-path:url(#SVGID_62_);">
				<text transform="matrix(1 0 0 1 444.6875 765.5791)"><tspan x="0" y="0" style="fill:#020000; font-family:'Helvetica'; font-size:5.4701px;">C</tspan><tspan x="3.2" y="0" style="fill:#020000; font-family:'Helvetica'; font-size:5.4701px;">r</tspan><tspan x="4.9" y="0" style="fill:#020000; font-family:'Helvetica'; font-size:5.4701px;">as jus</tspan><tspan x="17.4" y="0" style="fill:#020000; font-family:'Helvetica'; font-size:5.4701px;">t</tspan><tspan x="19.2" y="0" style="fill:#020000; font-family:'Helvetica'; font-size:5.4701px;">o odi</tspan><tspan x="30.7" y="0" style="fill:#020000; font-family:'Helvetica'; font-size:5.4701px;">o</tspan><tspan x="33.6" y="0" style="fill:#020000; font-family:'Helvetica'; font-size:5.4701px;">, dapibus ac facilisis in, egestas eget quam.</tspan></text>
			</g>
		</g>
	</g>
</g>
<g id="Lorum_Ipsum__x28_1_sentence_x29__10_">
	<g>
		<defs>
			<rect id="SVGID_63_" x="444.7" y="792" width="130" height="5.9"/>
		</defs>
		<clipPath id="SVGID_64_">
			<use xlink:href="#SVGID_63_"  style="overflow:visible;"/>
		</clipPath>
		<g style="clip-path:url(#SVGID_64_);">
			<defs>
				<rect id="SVGID_65_" x="444.7" y="792" width="130" height="5.9"/>
			</defs>
			<clipPath id="SVGID_66_">
				<use xlink:href="#SVGID_65_"  style="overflow:visible;"/>
			</clipPath>
			<g style="clip-path:url(#SVGID_66_);">
				<text transform="matrix(1 0 0 1 444.6875 796.5791)"><tspan x="0" y="0" style="fill:#020000; font-family:'Helvetica'; font-size:5.4701px;">C</tspan><tspan x="3.2" y="0" style="fill:#020000; font-family:'Helvetica'; font-size:5.4701px;">r</tspan><tspan x="4.9" y="0" style="fill:#020000; font-family:'Helvetica'; font-size:5.4701px;">as jus</tspan><tspan x="17.4" y="0" style="fill:#020000; font-family:'Helvetica'; font-size:5.4701px;">t</tspan><tspan x="19.2" y="0" style="fill:#020000; font-family:'Helvetica'; font-size:5.4701px;">o odi</tspan><tspan x="30.7" y="0" style="fill:#020000; font-family:'Helvetica'; font-size:5.4701px;">o</tspan><tspan x="33.6" y="0" style="fill:#020000; font-family:'Helvetica'; font-size:5.4701px;">, dapibus ac facilisis in, egestas eget quam.</tspan></text>
			</g>
		</g>
	</g>
</g>
<g id="Button_soft_edge_1_">
	<g>
		<defs>
			<rect id="SVGID_67_" x="261" y="812" width="71" height="23"/>
		</defs>
		<clipPath id="SVGID_68_">
			<use xlink:href="#SVGID_67_"  style="overflow:visible;"/>
		</clipPath>
		<g style="clip-path:url(#SVGID_68_);">
			<defs>
				<rect id="SVGID_69_" x="261" y="812" width="71" height="23"/>
			</defs>
			<clipPath id="SVGID_70_">
				<use xlink:href="#SVGID_69_"  style="overflow:visible;"/>
			</clipPath>
			<path style="clip-path:url(#SVGID_70_);fill:#989999;" d="M261,832c0,1.6,1.3,3,3,3H329c1.6,0,3-1.3,3-3V815c0-1.6-1.3-3-3-3H264
				c-1.6,0-3,1.3-3,3V832z"/>
			<path style="clip-path:url(#SVGID_70_);fill:#4B4B4B;" d="M261,832c0,1.6,1.3,3,3,3H329c1.6,0,3-1.3,3-3V815c0-1.6-1.3-3-3-3H264
				c-1.6,0-3,1.3-3,3V832z"/>
		</g>
		<g style="clip-path:url(#SVGID_68_);">
			<text transform="matrix(1.1404 0 0 1 275.7817 826.501)"><tspan x="0" y="0" style="fill:#F2F2F2; font-family:'Helvetica'; font-size:10.2612px;">BU</tspan><tspan x="12.2" y="0" style="fill:#F2F2F2; font-family:'Helvetica'; font-size:10.2612px;">T</tspan><tspan x="17.7" y="0" style="fill:#F2F2F2; font-family:'Helvetica'; font-size:10.2612px;">T</tspan><tspan x="22.5" y="0" style="fill:#F2F2F2; font-family:'Helvetica'; font-size:10.2612px;">ON</tspan></text>
		</g>
	</g>
</g>
</svg>
