<?xml version="1.0" encoding="utf-8"?>
<!-- Generator: Adobe Illustrator 23.0.3, SVG Export Plug-In . SVG Version: 6.00 Build 0)  -->
<svg version="1.1" id="Layer_1" xmlns="http://www.w3.org/2000/svg" xmlns:xlink="http://www.w3.org/1999/xlink" x="0px" y="0px"
	 viewBox="0 0 640 12032" style="enable-background:new 0 0 640 12032;" xml:space="preserve">
<g>
	<path style="fill:#FFFFFF;stroke:#000000;stroke-width:5;stroke-linecap:square;stroke-miterlimit:10;" d="M318.3,1531.7"/>
	<rect x="128" y="11884" style="stroke:#000000;stroke-miterlimit:10;" width="111.8" height="129"/>
	<rect x="254.8" y="11884" style="stroke:#000000;stroke-miterlimit:10;" width="126.8" height="129"/>
	<rect x="395.8" y="11884" style="stroke:#000000;stroke-miterlimit:10;" width="116.3" height="129"/>
	<path style="fill:#FFFFFF;stroke:#000000;stroke-width:30;stroke-linecap:square;stroke-miterlimit:10;" d="M188.4,1160.2"/>
	<g>
		<path style="fill:#FFFFFF;stroke:#000000;stroke-width:30;stroke-linecap:square;stroke-miterlimit:10;" d="M457.9,9591
			c0,0,0,0,0-1983.8V2572.5l34.8-154.2V1351.9L319.9,128.2C262.4,536.1,204.9,944,147.3,1351.9v1065.6l34.8,152.6v5035.5v1983.7
			l-37.5,1591.5L128,11889h138.1h103.9H512l-32.5-1388.7l-21.3-909.8"/>
		<g>
			<polygon style="fill:#666666;" points="136.9,11894 172.1,10498 468.9,10497 503.1,11895 			"/>
			<path d="M464,10502c11.3,462.7,22.7,925.3,34,1388c-118.7-0.3-237.3-0.7-356-1c11.7-462,23.3-924,35-1386
				C272.7,10502.7,368.3,10502.3,464,10502 M473.8,10492l-9.8,0l-143.5,0.5L177,10493l-9.7,0l-0.2,9.7l-17.5,693l-17.5,693
				l-0.3,10.2l10.2,0l178,0.5l178,0.5l10.3,0l-0.3-10.3l-17-694l-17-694L473.8,10492L473.8,10492z"/>
		</g>
		<polyline style="fill:none;stroke:#000000;stroke-width:30;stroke-linecap:square;stroke-miterlimit:10;" points="318,8136.2 
			285.3,10498.2 278.3,11007.1 266.1,11888.6 		"/>
		
			<line style="fill:none;stroke:#000000;stroke-width:30;stroke-linecap:square;stroke-miterlimit:10;" x1="318" y1="8136.2" x2="369.9" y2="11888.6"/>
	</g>
	
		<rect x="183" y="3711.5" style="stroke:#000000;stroke-width:5;stroke-linecap:square;stroke-miterlimit:10;" width="275" height="258"/>
	<g>
		<rect x="226.5" y="3343.2" style="fill:#3C3B6E;stroke:#000000;stroke-miterlimit:10;" width="91.8" height="64.6"/>
		<polygon style="fill:#FFFFFF;stroke:#000000;stroke-miterlimit:10;" points="263.8,3353.5 264.7,3355.5 266.7,3355.8 
			265.2,3357.4 265.6,3359.5 263.8,3358.5 261.9,3359.5 262.3,3357.4 260.8,3355.8 262.8,3355.5 		"/>
		<polygon style="fill:#FFFFFF;stroke:#000000;stroke-miterlimit:10;" points="263.8,3366.2 264.7,3368.1 266.7,3368.5 265.2,3370 
			265.6,3372.2 263.8,3371.1 261.9,3372.2 262.3,3370 260.8,3368.5 262.8,3368.1 		"/>
		<polygon style="fill:#FFFFFF;stroke:#000000;stroke-miterlimit:10;" points="263.8,3379 264.7,3381 266.7,3381.3 265.2,3382.9 
			265.6,3385 263.8,3384 261.9,3385 262.3,3382.9 260.8,3381.3 262.8,3381 		"/>
		<polygon style="fill:#FFFFFF;stroke:#000000;stroke-miterlimit:10;" points="263.8,3391.6 264.7,3393.6 266.7,3393.9 
			265.2,3395.5 265.6,3397.6 263.8,3396.6 261.9,3397.6 262.3,3395.5 260.8,3393.9 262.8,3393.6 		"/>
		<polygon style="fill:#FFFFFF;stroke:#000000;stroke-miterlimit:10;" points="246.8,3353.2 247.7,3355.2 249.8,3355.5 248.3,3357 
			248.6,3359.2 246.8,3358.2 245,3359.2 245.3,3357 243.8,3355.5 245.9,3355.2 		"/>
		<polygon style="fill:#FFFFFF;stroke:#000000;stroke-miterlimit:10;" points="246.8,3366 247.7,3368 249.8,3368.3 248.3,3369.8 
			248.6,3372 246.8,3371 245,3372 245.3,3369.8 243.8,3368.3 245.9,3368 		"/>
		<polygon style="fill:#FFFFFF;stroke:#000000;stroke-miterlimit:10;" points="246.8,3378.8 247.7,3380.7 249.8,3381.1 
			248.3,3382.6 248.6,3384.8 246.8,3383.7 245,3384.8 245.3,3382.6 243.8,3381.1 245.9,3380.7 		"/>
		<polygon style="fill:#FFFFFF;stroke:#000000;stroke-miterlimit:10;" points="246.8,3391.5 247.7,3393.5 249.8,3393.8 
			248.3,3395.4 248.6,3397.5 246.8,3396.5 245,3397.5 245.3,3395.4 243.8,3393.8 245.9,3393.5 		"/>
		<polygon style="fill:#FFFFFF;stroke:#000000;stroke-miterlimit:10;" points="272.5,3346.2 273.4,3348.1 275.5,3348.5 274,3350 
			274.4,3352.2 272.5,3351.1 270.7,3352.2 271,3350 269.6,3348.5 271.6,3348.1 		"/>
		<polygon style="fill:#FFFFFF;stroke:#000000;stroke-miterlimit:10;" points="272.5,3359.5 273.4,3361.5 275.5,3361.8 274,3363.4 
			274.4,3365.5 272.5,3364.5 270.7,3365.5 271,3363.4 269.6,3361.8 271.6,3361.5 		"/>
		<polygon style="fill:#FFFFFF;stroke:#000000;stroke-miterlimit:10;" points="272.5,3372.4 273.4,3374.4 275.5,3374.7 274,3376.2 
			274.4,3378.4 272.5,3377.4 270.7,3378.4 271,3376.2 269.6,3374.7 271.6,3374.4 		"/>
		<polygon style="fill:#FFFFFF;stroke:#000000;stroke-miterlimit:10;" points="272.5,3384.8 273.4,3386.7 275.5,3387 274,3388.6 
			274.4,3390.8 272.5,3389.7 270.7,3390.8 271,3388.6 269.6,3387 271.6,3386.7 		"/>
		<polygon style="fill:#FFFFFF;stroke:#000000;stroke-miterlimit:10;" points="272.5,3397.6 273.4,3399.6 275.5,3399.9 274,3401.4 
			274.4,3403.6 272.5,3402.6 270.7,3403.6 271,3401.4 269.6,3399.9 271.6,3399.6 		"/>
		<polygon style="fill:#FFFFFF;stroke:#000000;stroke-miterlimit:10;" points="255.4,3346.1 256.3,3348.1 258.3,3348.4 
			256.8,3349.9 257.2,3352.1 255.4,3351.1 253.5,3352.1 253.9,3349.9 252.4,3348.4 254.4,3348.1 		"/>
		<polygon style="fill:#FFFFFF;stroke:#000000;stroke-miterlimit:10;" points="255.4,3359 256.3,3360.9 258.3,3361.3 256.8,3362.8 
			257.2,3365 255.4,3363.9 253.5,3365 253.9,3362.8 252.4,3361.3 254.4,3360.9 		"/>
		<polygon style="fill:#FFFFFF;stroke:#000000;stroke-miterlimit:10;" points="255.4,3371.8 256.3,3373.8 258.3,3374.1 
			256.8,3375.7 257.2,3377.8 255.4,3376.8 253.5,3377.8 253.9,3375.7 252.4,3374.1 254.4,3373.8 		"/>
		<polygon style="fill:#FFFFFF;stroke:#000000;stroke-miterlimit:10;" points="255.4,3384.7 256.3,3386.7 258.3,3387 256.8,3388.5 
			257.2,3390.7 255.4,3389.7 253.5,3390.7 253.9,3388.5 252.4,3387 254.4,3386.7 		"/>
		<polygon style="fill:#FFFFFF;stroke:#000000;stroke-miterlimit:10;" points="255.4,3397.6 256.3,3399.5 258.3,3399.9 
			256.8,3401.4 257.2,3403.6 255.4,3402.5 253.5,3403.6 253.9,3401.4 252.4,3399.9 254.4,3399.5 		"/>
		<polygon style="fill:#FFFFFF;stroke:#000000;stroke-miterlimit:10;" points="297.7,3353.5 298.6,3355.5 300.6,3355.8 
			299.2,3357.4 299.5,3359.5 297.7,3358.5 295.9,3359.5 296.2,3357.4 294.7,3355.8 296.8,3355.5 		"/>
		<polygon style="fill:#FFFFFF;stroke:#000000;stroke-miterlimit:10;" points="297.7,3365.9 298.6,3367.9 300.6,3368.2 
			299.2,3369.7 299.5,3371.9 297.7,3370.9 295.9,3371.9 296.2,3369.7 294.7,3368.2 296.8,3367.9 		"/>
		<polygon style="fill:#FFFFFF;stroke:#000000;stroke-miterlimit:10;" points="297.7,3378.8 298.6,3380.7 300.6,3381.1 
			299.2,3382.6 299.5,3384.8 297.7,3383.7 295.9,3384.8 296.2,3382.6 294.7,3381.1 296.8,3380.7 		"/>
		<polygon style="fill:#FFFFFF;stroke:#000000;stroke-miterlimit:10;" points="298.2,3391.6 299.1,3393.6 301.1,3393.9 
			299.7,3395.5 300,3397.6 298.2,3396.6 296.4,3397.6 296.7,3395.5 295.2,3393.9 297.3,3393.6 		"/>
		<polygon style="fill:#FFFFFF;stroke:#000000;stroke-miterlimit:10;" points="280.7,3353.2 281.6,3355.2 283.7,3355.5 282.2,3357 
			282.6,3359.2 280.7,3358.2 278.9,3359.2 279.2,3357 277.8,3355.5 279.8,3355.2 		"/>
		<polygon style="fill:#FFFFFF;stroke:#000000;stroke-miterlimit:10;" points="280.7,3366.1 281.6,3368 283.7,3368.4 282.2,3369.9 
			282.6,3372.1 280.7,3371 278.9,3372.1 279.2,3369.9 277.8,3368.4 279.8,3368 		"/>
		<polygon style="fill:#FFFFFF;stroke:#000000;stroke-miterlimit:10;" points="280.7,3378.7 281.6,3380.6 283.7,3381 282.2,3382.5 
			282.6,3384.7 280.7,3383.6 278.9,3384.7 279.2,3382.5 277.8,3381 279.8,3380.6 		"/>
		<polygon style="fill:#FFFFFF;stroke:#000000;stroke-miterlimit:10;" points="280.7,3391.5 281.6,3393.5 283.7,3393.8 
			282.2,3395.4 282.6,3397.5 280.7,3396.5 278.9,3397.5 279.2,3395.4 277.8,3393.8 279.8,3393.5 		"/>
		<polygon style="fill:#FFFFFF;stroke:#000000;stroke-miterlimit:10;" points="306.9,3346.2 307.8,3348.1 309.8,3348.5 308.3,3350 
			308.7,3352.2 306.9,3351.1 305,3352.2 305.4,3350 303.9,3348.5 306,3348.1 		"/>
		<polygon style="fill:#FFFFFF;stroke:#000000;stroke-miterlimit:10;" points="306.9,3359.5 307.8,3361.5 309.8,3361.8 
			308.3,3363.4 308.7,3365.5 306.9,3364.5 305,3365.5 305.4,3363.4 303.9,3361.8 306,3361.5 		"/>
		<polygon style="fill:#FFFFFF;stroke:#000000;stroke-miterlimit:10;" points="306.9,3372.4 307.8,3374.4 309.8,3374.7 
			308.3,3376.2 308.7,3378.4 306.9,3377.4 305,3378.4 305.4,3376.2 303.9,3374.7 306,3374.4 		"/>
		<polygon style="fill:#FFFFFF;stroke:#000000;stroke-miterlimit:10;" points="306.9,3384.8 307.8,3386.7 309.8,3387 308.3,3388.6 
			308.7,3390.8 306.9,3389.7 305,3390.8 305.4,3388.6 303.9,3387 306,3386.7 		"/>
		<polygon style="fill:#FFFFFF;stroke:#000000;stroke-miterlimit:10;" points="306.9,3397.6 307.8,3399.6 309.8,3399.9 
			308.3,3401.4 308.7,3403.6 306.9,3402.6 305,3403.6 305.4,3401.4 303.9,3399.9 306,3399.6 		"/>
		<polygon style="fill:#FFFFFF;stroke:#000000;stroke-miterlimit:10;" points="289.7,3346.1 290.6,3348.1 292.7,3348.4 
			291.2,3349.9 291.5,3352.1 289.7,3351.1 287.9,3352.1 288.2,3349.9 286.7,3348.4 288.8,3348.1 		"/>
		<polygon style="fill:#FFFFFF;stroke:#000000;stroke-miterlimit:10;" points="289.7,3360 290.6,3361.9 292.7,3362.3 291.2,3363.8 
			291.5,3366 289.7,3364.9 287.9,3366 288.2,3363.8 286.7,3362.3 288.8,3361.9 		"/>
		<polygon style="fill:#FFFFFF;stroke:#000000;stroke-miterlimit:10;" points="289.7,3372.3 290.6,3374.3 292.7,3374.6 
			291.2,3376.2 291.5,3378.3 289.7,3377.3 287.9,3378.3 288.2,3376.2 286.7,3374.6 288.8,3374.3 		"/>
		<polygon style="fill:#FFFFFF;stroke:#000000;stroke-miterlimit:10;" points="289.7,3384.7 290.6,3386.7 292.7,3387 291.2,3388.5 
			291.5,3390.7 289.7,3389.7 287.9,3390.7 288.2,3388.5 286.7,3387 288.8,3386.7 		"/>
		<polygon style="fill:#FFFFFF;stroke:#000000;stroke-miterlimit:10;" points="289.7,3397.6 290.6,3399.5 292.7,3399.9 
			291.2,3401.4 291.5,3403.6 289.7,3402.5 287.9,3403.6 288.2,3401.4 286.7,3399.9 288.8,3399.5 		"/>
		<polygon style="fill:#FFFFFF;stroke:#000000;stroke-miterlimit:10;" points="238.2,3346.4 239.1,3348.3 241.2,3348.6 
			239.7,3350.2 240,3352.4 238.2,3351.3 236.4,3352.4 236.7,3350.2 235.2,3348.6 237.3,3348.3 		"/>
		<polygon style="fill:#FFFFFF;stroke:#000000;stroke-miterlimit:10;" points="238.2,3359.2 239.1,3361.1 241.2,3361.4 239.7,3363 
			240,3365.2 238.2,3364.1 236.4,3365.2 236.7,3363 235.2,3361.4 237.3,3361.1 		"/>
		<polygon style="fill:#FFFFFF;stroke:#000000;stroke-miterlimit:10;" points="238.2,3372 239.1,3373.9 241.2,3374.2 239.7,3375.8 
			240,3378 238.2,3376.9 236.4,3378 236.7,3375.8 235.2,3374.2 237.3,3373.9 		"/>
		<polygon style="fill:#FFFFFF;stroke:#000000;stroke-miterlimit:10;" points="238.2,3384.8 239.1,3386.7 241.2,3387.1 
			239.7,3388.6 240,3390.8 238.2,3389.7 236.4,3390.8 236.7,3388.6 235.2,3387.1 237.3,3386.7 		"/>
		<polygon style="fill:#FFFFFF;stroke:#000000;stroke-miterlimit:10;" points="238.2,3397.6 239.1,3399.5 241.2,3399.9 
			239.7,3401.4 240,3403.6 238.2,3402.5 236.4,3403.6 236.7,3401.4 235.2,3399.9 237.3,3399.5 		"/>
		<rect x="318.4" y="3342.9" style="fill:#B22234;stroke:#000000;stroke-miterlimit:10;" width="100.6" height="9.3"/>
		<rect x="318.4" y="3389.2" style="fill:#FFFFFF;stroke:#000000;stroke-miterlimit:10;" width="100.6" height="9.3"/>
		<rect x="226.6" y="3407.8" style="fill:#FFFFFF;stroke:#000000;stroke-miterlimit:10;" width="192.4" height="9.2"/>
		<rect x="318.4" y="3370.7" style="fill:#FFFFFF;stroke:#000000;stroke-miterlimit:10;" width="100.6" height="9.3"/>
		<rect x="318.4" y="3352.2" style="fill:#FFFFFF;stroke:#000000;stroke-miterlimit:10;" width="100.6" height="9.3"/>
		<rect x="318.4" y="3398.5" style="fill:#B22234;stroke:#000000;stroke-miterlimit:10;" width="100.6" height="9.3"/>
		<rect x="226.8" y="3417.2" style="fill:#B22234;stroke:#000000;stroke-miterlimit:10;" width="192.5" height="9.3"/>
		<rect x="226.6" y="3426.6" style="fill:#FFFFFF;stroke:#000000;stroke-miterlimit:10;" width="192.4" height="9.2"/>
		<rect x="226.8" y="3436" style="fill:#B22234;stroke:#000000;stroke-miterlimit:10;" width="192.5" height="9.3"/>
		<rect x="226.6" y="3445.3" style="fill:#FFFFFF;stroke:#000000;stroke-miterlimit:10;" width="192.4" height="9.2"/>
		<rect x="226.8" y="3454.7" style="fill:#B22234;stroke:#000000;stroke-miterlimit:10;" width="192.5" height="9.3"/>
		<rect x="318.4" y="3380" style="fill:#B22234;stroke:#000000;stroke-miterlimit:10;" width="100.6" height="9.3"/>
		<rect x="318.4" y="3361.4" style="fill:#B22234;stroke:#000000;stroke-miterlimit:10;" width="100.6" height="9.3"/>
	</g>
	
		<rect x="182" y="2815.5" style="stroke:#000000;stroke-width:5;stroke-linecap:square;stroke-miterlimit:10;" width="269.8" height="258"/>
</g>
</svg>
