<?xml version="1.0" encoding="utf-8"?>
<!-- Generator: Adobe Illustrator 23.0.3, SVG Export Plug-In . SVG Version: 6.00 Build 0)  -->
<svg version="1.1" id="Layer_1" xmlns="http://www.w3.org/2000/svg" xmlns:xlink="http://www.w3.org/1999/xlink" x="0px" y="0px"
	 viewBox="0 0 10240 2048" style="enable-background:new 0 0 10240 2048;" xml:space="preserve">
<path style="fill:#F2E527;stroke:#000000;stroke-width:5;stroke-miterlimit:10;" d="M616.9,690c36.2-7.3,72.4-14.5,108.5-21.8
	c51.8,258,103.5,516.1,155.3,774.1c-3.3,77.3-6.5,154.7-9.8,232c-32.8-69.9-65.6-139.9-98.4-209.8L616.9,690z"/>
<g>
	<path style="fill:#F2790F;" d="M1319,146.5c106.9,71.2-194,523.1-194,523.1l-525.7,791.3l-43.2,296.7l-427.6-284.8l257.1-154.3
		l526.3-792.2c0,0,300.9-451.9,407.8-380.7"/>
</g>
<g>
	<path style="fill:#F2E527;" d="M340.7,1615.1c-234.3-156-202.8,304.6-202.8,304.6"/>
	<path style="fill:#F2E527;" d="M341.1,1615.4c234.3,156-202.8,304.6-202.8,304.6"/>
</g>
<g>
	<path style="fill:#F2E527;stroke:#000000;stroke-width:5;stroke-miterlimit:10;" d="M1293.8,553.2L713.4,669.6
		c0,0-96.7,19.4-77.3,112.4l-19.4-93c0,0-18.4-91.7,78.2-111.8l580.4-116.4"/>
	<polyline style="fill:#F2E527;stroke:#000000;stroke-width:5;stroke-miterlimit:10;" points="1276.2,461.4 1478.6,469.1 
		1294.8,554.2 	"/>
</g>
<polygon style="fill:#F2E527;" points="802.8,1744 886.2,1743.7 933.2,1674.8 959.3,1754 1039.4,1777.4 972.1,1826.7 974.6,1910.1 
	906.9,1861.4 828.3,1889.5 853.8,1810 "/>
<text transform="matrix(1 0 0 1 1535.9995 1352.043)" style="fill:#B5DBF2; font-family:'BrandonGrotesque-Bold'; font-size:813.8036px;">FUTURE ASTRONAUTS</text>
</svg>
