<?xml version="1.0" encoding="utf-8"?>
<!-- Generator: Adobe Illustrator 23.0.3, SVG Export Plug-In . SVG Version: 6.00 Build 0)  -->
<svg version="1.1" id="Layer_1" xmlns="http://www.w3.org/2000/svg" xmlns:xlink="http://www.w3.org/1999/xlink" x="0px" y="0px"
	 viewBox="0 0 2048 2048" style="enable-background:new 0 0 2048 2048;" xml:space="preserve">
<path style="fill:#F2E527;stroke:#000000;stroke-width:5;stroke-miterlimit:10;" d="M868.9,685c36.2-7.3,72.4-14.5,108.5-21.8
	c51.8,258,103.5,516.1,155.3,774.1c-3.3,77.3-6.5,154.7-9.8,232c-32.8-69.9-65.6-139.9-98.4-209.8L868.9,685z"/>
<g>
	<g>
		<path style="fill:#F2790F;" d="M1571,141.5c106.9,71.2-194,523.1-194,523.1l-525.7,791.3l-43.2,296.7l-427.6-284.8l257.1-154.3
			l526.3-792.2c0,0,300.9-451.9,407.8-380.7"/>
	</g>
	<g>
		<path style="fill:#F2E527;" d="M593.1,1610.4c234.3,156-202.8,304.6-202.8,304.6l-0.4-0.3c0,0-31.5-460.6,202.8-304.6"/>
	</g>
</g>
<g>
	<path style="fill:#F2E527;stroke:#000000;stroke-width:5;stroke-miterlimit:10;" d="M1545.8,548.2L965.4,664.6
		c0,0-96.7,19.4-77.3,112.4l-19.4-93c0,0-18.4-91.7,78.2-111.8l580.4-116.4"/>
	<polyline style="fill:#F2E527;stroke:#000000;stroke-width:5;stroke-miterlimit:10;" points="1528.2,456.4 1730.6,464.1 
		1546.8,549.2 	"/>
</g>
<polygon style="fill:#F2E527;" points="1054.8,1739 1138.2,1738.7 1185.2,1669.8 1211.3,1749 1291.4,1772.4 1224.1,1821.7 
	1226.6,1905.1 1158.9,1856.4 1080.3,1884.5 1105.8,1805 "/>
</svg>
